RobotoFlex_XTSP-100.ufo
<glyph name="ampersand" format="2">
  <advance width="1196"/>
  <unicode hex="0026"/>
  <outline>
    <contour>
      <point x="10" y="380" type="qcurve" smooth="yes"/>
      <point x="10" y="540"/>
      <point x="230" y="766"/>
      <point x="380" y="860" type="qcurve" smooth="yes"/>
      <point x="540" y="960" type="line" smooth="yes"/>
      <point x="620" y="1010"/>
      <point x="680" y="1110"/>
      <point x="680" y="1170" type="qcurve" smooth="yes"/>
      <point x="680" y="1240"/>
      <point x="590" y="1334"/>
      <point x="505" y="1334" type="qcurve" smooth="yes"/>
      <point x="420" y="1334"/>
      <point x="322" y="1230"/>
      <point x="322" y="1160" type="qcurve" smooth="yes"/>
      <point x="322" y="1090"/>
      <point x="402" y="960"/>
      <point x="500" y="840" type="qcurve" smooth="yes"/>
      <point x="1186" y="0" type="line"/>
      <point x="964" y="0" type="line"/>
      <point x="360" y="740" type="line" smooth="yes"/>
      <point x="254" y="870"/>
      <point x="140" y="1060"/>
      <point x="140" y="1160" type="qcurve" smooth="yes"/>
      <point x="140" y="1300"/>
      <point x="350" y="1486"/>
      <point x="505" y="1486" type="qcurve" smooth="yes"/>
      <point x="660" y="1486"/>
      <point x="852" y="1310"/>
      <point x="852" y="1180" type="qcurve" smooth="yes"/>
      <point x="852" y="1060"/>
      <point x="736" y="900"/>
      <point x="640" y="840" type="qcurve" smooth="yes"/>
      <point x="480" y="740" type="line" smooth="yes"/>
      <point x="340" y="652"/>
      <point x="194" y="490"/>
      <point x="194" y="380" type="qcurve" smooth="yes"/>
      <point x="194" y="270"/>
      <point x="350" y="132"/>
      <point x="480" y="132" type="qcurve" smooth="yes"/>
      <point x="660" y="132"/>
      <point x="920" y="420"/>
      <point x="920" y="674" type="qcurve"/>
      <point x="1092" y="674" type="line"/>
      <point x="1092" y="380"/>
      <point x="740" y="-20"/>
      <point x="480" y="-20" type="qcurve" smooth="yes"/>
      <point x="260" y="-20"/>
      <point x="10" y="205"/>
    </contour>
  </outline>
</glyph>
<glyph name="parenleft" format="2">
  <advance width="560"/>
  <unicode hex="0028"/>
  <outline>
    <contour>
      <point x="550" y="-436" type="line"/>
      <point x="346" y="-340"/>
      <point x="10" y="140"/>
      <point x="10" y="515" type="qcurve" smooth="yes"/>
      <point x="10" y="525" type="line" smooth="yes"/>
      <point x="10" y="917"/>
      <point x="346" y="1380"/>
      <point x="550" y="1476" type="qcurve"/>
      <point x="550" y="1296" type="line"/>
      <point x="426" y="1220"/>
      <point x="205" y="861"/>
      <point x="205" y="532" type="qcurve" smooth="yes"/>
      <point x="205" y="508" type="line" smooth="yes"/>
      <point x="205" y="193"/>
      <point x="426" y="-180"/>
      <point x="550" y="-256" type="qcurve"/>
    </contour>
  </outline>
</glyph>
<glyph name="asterisk" format="2">
  <advance width="984"/>
  <unicode hex="002A"/>
  <outline>
    <contour>
      <point x="10" y="1057" type="line"/>
      <point x="69" y="1237" type="line"/>
      <point x="435" y="1079" type="line"/>
      <point x="397" y="1476" type="line"/>
      <point x="587" y="1476" type="line"/>
      <point x="549" y="1079" type="line"/>
      <point x="915" y="1237" type="line"/>
      <point x="974" y="1057" type="line"/>
      <point x="585" y="969" type="line"/>
      <point x="849" y="671" type="line"/>
      <point x="695" y="559" type="line"/>
      <point x="492" y="903" type="line"/>
      <point x="289" y="559" type="line"/>
      <point x="135" y="671" type="line"/>
      <point x="399" y="969" type="line"/>
    </contour>
  </outline>
</glyph>
<glyph name="plus" format="2">
  <advance width="930"/>
  <unicode hex="002B"/>
  <outline>
    <contour>
      <point x="10" y="591" type="line"/>
      <point x="10" y="755" type="line"/>
      <point x="920" y="755" type="line"/>
      <point x="920" y="591" type="line"/>
    </contour>
    <contour>
      <point x="375" y="188" type="line"/>
      <point x="375" y="1160" type="line"/>
      <point x="555" y="1160" type="line"/>
      <point x="555" y="188" type="line"/>
    </contour>
  </outline>
</glyph>
<glyph name="period" format="2">
  <advance width="280"/>
  <unicode hex="002E"/>
  <outline>
    <contour>
      <point x="10" y="103" type="qcurve" smooth="yes"/>
      <point x="10" y="155"/>
      <point x="77" y="228"/>
      <point x="140" y="228" type="qcurve" smooth="yes"/>
      <point x="203" y="228"/>
      <point x="270" y="155"/>
      <point x="270" y="103" type="qcurve" smooth="yes"/>
      <point x="270" y="51"/>
      <point x="203" y="-22"/>
      <point x="140" y="-22" type="qcurve" smooth="yes"/>
      <point x="77" y="-22"/>
      <point x="10" y="51"/>
    </contour>
  </outline>
</glyph>
<glyph name="slash" format="2">
  <advance width="804"/>
  <unicode hex="002F"/>
  <outline>
    <contour>
      <point x="10" y="-125" type="line"/>
      <point x="618" y="1456" type="line"/>
      <point x="794" y="1456" type="line"/>
      <point x="186" y="-125" type="line"/>
    </contour>
  </outline>
</glyph>
<glyph name="two" format="2">
  <advance width="980"/>
  <unicode hex="0032"/>
  <outline>
    <contour>
      <point x="10" y="0" type="line"/>
      <point x="10" y="140" type="line"/>
      <point x="530" y="700" type="line" smooth="yes"/>
      <point x="634" y="810"/>
      <point x="740" y="980"/>
      <point x="740" y="1080" type="qcurve" smooth="yes"/>
      <point x="740" y="1180"/>
      <point x="605" y="1328"/>
      <point x="485" y="1328" type="qcurve" smooth="yes"/>
      <point x="365" y="1328"/>
      <point x="200" y="1170"/>
      <point x="200" y="1030" type="qcurve" smooth="yes"/>
      <point x="200" y="1020" type="line"/>
      <point x="10" y="1020" type="line"/>
      <point x="10" y="1030" type="line" smooth="yes"/>
      <point x="10" y="1230"/>
      <point x="283" y="1486"/>
      <point x="485" y="1486" type="qcurve" smooth="yes"/>
      <point x="685" y="1486"/>
      <point x="930" y="1250"/>
      <point x="930" y="1090" type="qcurve" smooth="yes"/>
      <point x="930" y="948"/>
      <point x="770" y="716"/>
      <point x="655" y="595" type="qcurve" smooth="yes"/>
      <point x="248" y="166" type="line"/>
      <point x="970" y="166" type="line"/>
      <point x="970" y="0" type="line"/>
    </contour>
  </outline>
</glyph>
<glyph name="four" format="2">
  <advance width="1078"/>
  <unicode hex="0034"/>
  <outline>
    <contour>
      <point x="684" y="0" type="line"/>
      <point x="684" y="398" type="line"/>
      <point x="684" y="450" type="line"/>
      <point x="684" y="1149" type="line"/>
      <point x="672" y="1149" type="line"/>
      <point x="229" y="500" type="line"/>
      <point x="735" y="500" type="line"/>
      <point x="812" y="500" type="line"/>
      <point x="1068" y="500" type="line"/>
      <point x="1068" y="342" type="line"/>
      <point x="10" y="342" type="line"/>
      <point x="10" y="468" type="line"/>
      <point x="692" y="1456" type="line"/>
      <point x="864" y="1456" type="line"/>
      <point x="864" y="0" type="line"/>
    </contour>
  </outline>
</glyph>
<glyph name="less" format="2">
  <advance width="838"/>
  <unicode hex="003C"/>
  <outline>
    <contour>
      <point x="828" y="221" type="line"/>
      <point x="10" y="600" type="line"/>
      <point x="10" y="744" type="line"/>
      <point x="828" y="1123" type="line"/>
      <point x="828" y="930" type="line"/>
      <point x="234" y="677" type="line"/>
      <point x="828" y="424" type="line"/>
    </contour>
  </outline>
</glyph>
<glyph name="question" format="2">
  <advance width="834"/>
  <unicode hex="003F"/>
  <outline>
    <contour>
      <point x="270" y="97" type="qcurve" smooth="yes"/>
      <point x="270" y="146"/>
      <point x="334" y="216"/>
      <point x="394" y="216" type="qcurve" smooth="yes"/>
      <point x="454" y="216"/>
      <point x="518" y="146"/>
      <point x="518" y="97" type="qcurve" smooth="yes"/>
      <point x="518" y="48"/>
      <point x="454" y="-22"/>
      <point x="394" y="-22" type="qcurve" smooth="yes"/>
      <point x="334" y="-22"/>
      <point x="270" y="48"/>
    </contour>
    <contour>
      <point x="10" y="1095" type="line"/>
      <point x="10" y="1115" type="line" smooth="yes"/>
      <point x="10" y="1280"/>
      <point x="230" y="1476"/>
      <point x="420" y="1476" type="qcurve" smooth="yes"/>
      <point x="610" y="1476"/>
      <point x="824" y="1270"/>
      <point x="824" y="1100" type="qcurve" smooth="yes"/>
      <point x="824" y="966"/>
      <point x="676" y="758"/>
      <point x="604" y="694" type="qcurve" smooth="yes"/>
      <point x="519" y="617"/>
      <point x="478" y="490"/>
      <point x="478" y="420" type="qcurve" smooth="yes"/>
      <point x="478" y="410" type="line"/>
      <point x="292" y="410" type="line"/>
      <point x="292" y="420" type="line" smooth="yes"/>
      <point x="292" y="545"/>
      <point x="356" y="689"/>
      <point x="452" y="783" type="qcurve" smooth="yes"/>
      <point x="534" y="864"/>
      <point x="638" y="1000"/>
      <point x="638" y="1100" type="qcurve" smooth="yes"/>
      <point x="638" y="1200"/>
      <point x="530" y="1314"/>
      <point x="420" y="1314" type="qcurve" smooth="yes"/>
      <point x="310" y="1314"/>
      <point x="195" y="1210"/>
      <point x="195" y="1115" type="qcurve" smooth="yes"/>
      <point x="195" y="1095" type="line"/>
    </contour>
  </outline>
</glyph>
<glyph name="S" format="2">
  <advance width="1070"/>
  <unicode hex="0053"/>
  <anchor x="530" y="0" name="bottom"/>
  <anchor x="530" y="1456" name="top"/>
  <outline>
    <contour>
      <point x="10" y="398" type="qcurve" smooth="yes"/>
      <point x="10" y="410" type="line"/>
      <point x="202" y="410" type="line"/>
      <point x="202" y="398" type="line" smooth="yes"/>
      <point x="202" y="266"/>
      <point x="380" y="134"/>
      <point x="540" y="134" type="qcurve" smooth="yes"/>
      <point x="700" y="134"/>
      <point x="870" y="270"/>
      <point x="870" y="380" type="qcurve" smooth="yes"/>
      <point x="870" y="480"/>
      <point x="705" y="600"/>
      <point x="476" y="666" type="qcurve" smooth="yes"/>
      <point x="238" y="735"/>
      <point x="40" y="920"/>
      <point x="40" y="1090" type="qcurve" smooth="yes"/>
      <point x="40" y="1260"/>
      <point x="300" y="1486"/>
      <point x="530" y="1486" type="qcurve" smooth="yes"/>
      <point x="760" y="1486"/>
      <point x="1032" y="1248"/>
      <point x="1032" y="1064" type="qcurve" smooth="yes"/>
      <point x="1032" y="1052" type="line"/>
      <point x="840" y="1052" type="line"/>
      <point x="840" y="1064" type="line" smooth="yes"/>
      <point x="840" y="1180"/>
      <point x="684" y="1322"/>
      <point x="530" y="1322" type="qcurve" smooth="yes"/>
      <point x="376" y="1322"/>
      <point x="230" y="1200"/>
      <point x="230" y="1095" type="qcurve" smooth="yes"/>
      <point x="230" y="1000"/>
      <point x="380" y="890"/>
      <point x="614" y="824" type="qcurve" smooth="yes"/>
      <point x="848" y="758"/>
      <point x="1060" y="560"/>
      <point x="1060" y="380" type="qcurve" smooth="yes"/>
      <point x="1060" y="200"/>
      <point x="780" y="-30"/>
      <point x="540" y="-30" type="qcurve" smooth="yes"/>
      <point x="300" y="-30"/>
      <point x="10" y="200"/>
    </contour>
  </outline>
</glyph>
<glyph name="X" format="2">
  <advance width="1192"/>
  <unicode hex="0058"/>
  <anchor x="596" y="0" name="bottom"/>
  <anchor x="596" y="1456" name="top"/>
  <outline>
    <contour>
      <point x="10" y="0" type="line"/>
      <point x="534" y="806" type="line"/>
      <point x="548" y="806" type="line"/>
      <point x="945" y="1456" type="line"/>
      <point x="1157" y="1456" type="line"/>
      <point x="658" y="670" type="line"/>
      <point x="644" y="670" type="line"/>
      <point x="222" y="0" type="line"/>
    </contour>
    <contour>
      <point x="35" y="1456" type="line"/>
      <point x="251" y="1456" type="line"/>
      <point x="648" y="806" type="line"/>
      <point x="658" y="806" type="line"/>
      <point x="1182" y="0" type="line"/>
      <point x="966" y="0" type="line"/>
      <point x="544" y="670" type="line"/>
      <point x="534" y="670" type="line"/>
    </contour>
  </outline>
</glyph>
<glyph name="bracketright" format="2">
  <advance width="496"/>
  <unicode hex="005D"/>
  <outline>
    <contour>
      <point x="486" y="-310" type="line"/>
      <point x="10" y="-310" type="line"/>
      <point x="10" y="-150" type="line"/>
      <point x="301" y="-150" type="line"/>
      <point x="301" y="1296" type="line"/>
      <point x="10" y="1296" type="line"/>
      <point x="10" y="1456" type="line"/>
      <point x="486" y="1456" type="line"/>
    </contour>
  </outline>
</glyph>
<glyph name="grave" format="2">
  <advance width="424"/>
  <unicode hex="0060"/>
  <outline>
    <contour>
      <point x="309" y="1219" type="line"/>
      <point x="10" y="1494" type="line"/>
      <point x="163" y="1599" type="line"/>
      <point x="414" y="1298" type="line"/>
    </contour>
  </outline>
</glyph>
<glyph name="j" format="2">
  <advance width="206"/>
  <unicode hex="006A"/>
  <anchor x="103" y="-436" name="bottom"/>
  <anchor x="103" y="1052" name="top"/>
  <outline>
    <contour>
      <point x="-241" y="-410" type="qcurve"/>
      <point x="-241" y="-260" type="line"/>
      <point x="-221" y="-266"/>
      <point x="-147" y="-280"/>
      <point x="-117" y="-280" type="qcurve" smooth="yes"/>
      <point x="-57" y="-280"/>
      <point x="10" y="-210"/>
      <point x="10" y="-130" type="qcurve" smooth="yes"/>
      <point x="10" y="1052" type="line"/>
      <point x="196" y="1052" type="line"/>
      <point x="196" y="-90" type="line" smooth="yes"/>
      <point x="196" y="-270"/>
      <point x="57" y="-436"/>
      <point x="-77" y="-436" type="qcurve" smooth="yes"/>
      <point x="-117" y="-436"/>
      <point x="-216" y="-419"/>
    </contour>
    <contour>
      <point x="-13" y="1370" type="qcurve" smooth="yes"/>
      <point x="-13" y="1417"/>
      <point x="47" y="1481"/>
      <point x="103" y="1481" type="qcurve" smooth="yes"/>
      <point x="159" y="1481"/>
      <point x="219" y="1417"/>
      <point x="219" y="1370" type="qcurve" smooth="yes"/>
      <point x="219" y="1323"/>
      <point x="159" y="1259"/>
      <point x="103" y="1259" type="qcurve" smooth="yes"/>
      <point x="47" y="1259"/>
      <point x="-13" y="1323"/>
    </contour>
  </outline>
</glyph>
<glyph name="m" format="2">
  <advance width="1498"/>
  <unicode hex="006D"/>
  <anchor x="744" y="0" name="bottom"/>
  <anchor x="744" y="1052" name="top"/>
  <outline>
    <contour>
      <point x="10" y="0" type="line"/>
      <point x="10" y="1052" type="line"/>
      <point x="178" y="1052" type="line"/>
      <point x="186" y="917" type="line"/>
      <point x="192" y="917" type="line"/>
      <point x="248" y="988"/>
      <point x="407" y="1072"/>
      <point x="504" y="1072" type="qcurve" smooth="yes"/>
      <point x="610" y="1072"/>
      <point x="764" y="988"/>
      <point x="804" y="894" type="qcurve"/>
      <point x="810" y="894" type="line"/>
      <point x="876" y="988"/>
      <point x="1036" y="1072"/>
      <point x="1140" y="1072" type="qcurve" smooth="yes"/>
      <point x="1304" y="1072"/>
      <point x="1488" y="891"/>
      <point x="1488" y="679" type="qcurve" smooth="yes"/>
      <point x="1488" y="0" type="line"/>
      <point x="1302" y="0" type="line"/>
      <point x="1302" y="681" type="line" smooth="yes"/>
      <point x="1302" y="807"/>
      <point x="1194" y="916"/>
      <point x="1095" y="916" type="qcurve" smooth="yes"/>
      <point x="1009" y="916"/>
      <point x="880" y="820"/>
      <point x="842" y="744" type="qcurve"/>
      <point x="842" y="0" type="line"/>
      <point x="656" y="0" type="line"/>
      <point x="656" y="681" type="line" smooth="yes"/>
      <point x="656" y="807"/>
      <point x="548" y="916"/>
      <point x="449" y="916" type="qcurve" smooth="yes"/>
      <point x="363" y="916"/>
      <point x="234" y="820"/>
      <point x="196" y="744" type="qcurve"/>
      <point x="196" y="0" type="line"/>
    </contour>
  </outline>
</glyph>
<glyph name="r" format="2">
  <advance width="542"/>
  <unicode hex="0072"/>
  <anchor x="212" y="0" name="bottom"/>
  <anchor x="279" y="1052" name="top"/>
  <outline>
    <contour>
      <point x="10" y="0" type="line"/>
      <point x="10" y="1052" type="line"/>
      <point x="178" y="1052" type="line"/>
      <point x="186" y="917" type="line"/>
      <point x="192" y="917" type="line"/>
      <point x="232" y="983"/>
      <point x="362" y="1082"/>
      <point x="452" y="1082" type="qcurve" smooth="yes"/>
      <point x="474" y="1082"/>
      <point x="522" y="1072"/>
      <point x="532" y="1068" type="qcurve"/>
      <point x="532" y="896" type="line"/>
      <point x="512" y="900"/>
      <point x="468" y="904"/>
      <point x="442" y="904" type="qcurve" smooth="yes"/>
      <point x="352" y="904"/>
      <point x="226" y="810"/>
      <point x="196" y="740" type="qcurve"/>
      <point x="196" y="0" type="line"/>
    </contour>
  </outline>
</glyph>
<glyph name="s" format="2">
  <advance width="870"/>
  <unicode hex="0073"/>
  <anchor x="435" y="0" name="bottom"/>
  <anchor x="435" y="1052" name="top"/>
  <outline>
    <contour>
      <point x="10" y="310" type="line"/>
      <point x="196" y="310" type="line"/>
      <point x="196" y="305" type="line" smooth="yes"/>
      <point x="196" y="214"/>
      <point x="330" y="122"/>
      <point x="440" y="122" type="qcurve" smooth="yes"/>
      <point x="550" y="122"/>
      <point x="677" y="210"/>
      <point x="677" y="280" type="qcurve" smooth="yes"/>
      <point x="677" y="350"/>
      <point x="575" y="425"/>
      <point x="405" y="465" type="qcurve" smooth="yes"/>
      <point x="235" y="505"/>
      <point x="35" y="650"/>
      <point x="35" y="780" type="qcurve" smooth="yes"/>
      <point x="35" y="910"/>
      <point x="250" y="1082"/>
      <point x="430" y="1082" type="qcurve" smooth="yes"/>
      <point x="610" y="1082"/>
      <point x="830" y="911"/>
      <point x="830" y="765" type="qcurve" smooth="yes"/>
      <point x="830" y="760" type="line"/>
      <point x="645" y="760" type="line"/>
      <point x="645" y="769" type="line" smooth="yes"/>
      <point x="645" y="844"/>
      <point x="540" y="930"/>
      <point x="430" y="930" type="qcurve" smooth="yes"/>
      <point x="320" y="930"/>
      <point x="219" y="850"/>
      <point x="219" y="790" type="qcurve" smooth="yes"/>
      <point x="219" y="730"/>
      <point x="335" y="660"/>
      <point x="505" y="620" type="qcurve" smooth="yes"/>
      <point x="675" y="580"/>
      <point x="860" y="430"/>
      <point x="860" y="290" type="qcurve" smooth="yes"/>
      <point x="860" y="150"/>
      <point x="650" y="-30"/>
      <point x="440" y="-30" type="qcurve" smooth="yes"/>
      <point x="230" y="-30"/>
      <point x="10" y="153"/>
      <point x="10" y="305" type="qcurve" smooth="yes"/>
    </contour>
  </outline>
</glyph>
<glyph name="t" format="2">
  <advance width="620"/>
  <unicode hex="0074"/>
  <anchor x="408" y="0" name="bottom"/>
  <anchor x="335" y="619" name="center"/>
  <anchor x="335" y="1312" name="top"/>
  <anchor x="710" y="1052" name="topright"/>
  <outline>
    <contour>
      <point x="10" y="910" type="line"/>
      <point x="10" y="1052" type="line"/>
      <point x="610" y="1052" type="line"/>
      <point x="610" y="910" type="line"/>
    </contour>
    <contour>
      <point x="198" y="260" type="qcurve" smooth="yes"/>
      <point x="198" y="966" type="line"/>
      <point x="198" y="996" type="line"/>
      <point x="198" y="1312" type="line"/>
      <point x="384" y="1312" type="line"/>
      <point x="384" y="260" type="line" smooth="yes"/>
      <point x="384" y="190"/>
      <point x="440" y="130"/>
      <point x="500" y="130" type="qcurve" smooth="yes"/>
      <point x="528" y="130"/>
      <point x="582" y="142"/>
      <point x="610" y="152" type="qcurve"/>
      <point x="610" y="0" type="line"/>
      <point x="584" y="-12"/>
      <point x="500" y="-30"/>
      <point x="450" y="-30" type="qcurve" smooth="yes"/>
      <point x="335" y="-30"/>
      <point x="198" y="110"/>
    </contour>
  </outline>
</glyph>
<glyph name="v" format="2">
  <advance width="962"/>
  <unicode hex="0076"/>
  <anchor x="481" y="0" name="bottom"/>
  <anchor x="481" y="1052" name="top"/>
  <outline>
    <contour>
      <point x="10" y="1052" type="line"/>
      <point x="190" y="1052" type="line"/>
      <point x="444" y="350" type="line" smooth="yes"/>
      <point x="458" y="310"/>
      <point x="477" y="240"/>
      <point x="481" y="220" type="qcurve"/>
      <point x="487" y="220" type="line"/>
      <point x="491" y="240"/>
      <point x="510" y="310"/>
      <point x="524" y="350" type="qcurve" smooth="yes"/>
      <point x="776" y="1052" type="line"/>
      <point x="952" y="1052" type="line"/>
      <point x="552" y="0" type="line"/>
      <point x="410" y="0" type="line"/>
    </contour>
  </outline>
</glyph>
<glyph name="braceright" format="2">
  <advance width="626"/>
  <unicode hex="007D"/>
  <outline>
    <contour>
      <point x="10" y="-312" type="qcurve"/>
      <point x="10" y="-166" type="line"/>
      <point x="158" y="-166"/>
      <point x="297" y="2"/>
      <point x="268" y="123" type="qcurve" smooth="yes"/>
      <point x="218" y="334" type="line" smooth="yes"/>
      <point x="198" y="418"/>
      <point x="270" y="548"/>
      <point x="368" y="574" type="qcurve"/>
      <point x="270" y="600"/>
      <point x="198" y="730"/>
      <point x="218" y="814" type="qcurve" smooth="yes"/>
      <point x="268" y="1025" type="line" smooth="yes"/>
      <point x="297" y="1146"/>
      <point x="158" y="1314"/>
      <point x="10" y="1314" type="qcurve"/>
      <point x="10" y="1460" type="line"/>
      <point x="236" y="1460"/>
      <point x="491" y="1180"/>
      <point x="454" y="1025" type="qcurve" smooth="yes"/>
      <point x="404" y="814" type="line" smooth="yes"/>
      <point x="379" y="707"/>
      <point x="504" y="640"/>
      <point x="616" y="640" type="qcurve"/>
      <point x="616" y="508" type="line"/>
      <point x="504" y="508"/>
      <point x="379" y="441"/>
      <point x="404" y="334" type="qcurve" smooth="yes"/>
      <point x="454" y="123" type="line" smooth="yes"/>
      <point x="491" y="-32"/>
      <point x="236" y="-312"/>
    </contour>
  </outline>
</glyph>
<glyph name="asciitilde" format="2">
  <advance width="953"/>
  <unicode hex="007E"/>
  <outline>
    <contour>
      <point x="10" y="532" type="qcurve"/>
      <point x="10" y="734" type="line"/>
      <point x="57" y="785"/>
      <point x="189" y="842"/>
      <point x="254" y="843" type="qcurve" smooth="yes"/>
      <point x="333" y="844"/>
      <point x="425" y="801"/>
      <point x="488" y="770" type="qcurve" smooth="yes"/>
      <point x="547" y="740"/>
      <point x="632" y="701"/>
      <point x="706" y="701" type="qcurve" smooth="yes"/>
      <point x="771" y="701"/>
      <point x="896" y="769"/>
      <point x="943" y="829" type="qcurve"/>
      <point x="943" y="626" type="line"/>
      <point x="896" y="575"/>
      <point x="772" y="517"/>
      <point x="707" y="517" type="qcurve" smooth="yes"/>
      <point x="633" y="517"/>
      <point x="548" y="556"/>
      <point x="489" y="586" type="qcurve" smooth="yes"/>
      <point x="426" y="617"/>
      <point x="333" y="659"/>
      <point x="254" y="659" type="qcurve" smooth="yes"/>
      <point x="189" y="659"/>
      <point x="57" y="592"/>
    </contour>
  </outline>
</glyph>
<glyph name="currency" format="2">
  <advance width="1154"/>
  <unicode hex="00A4"/>
  <guideline x="0" y="901" angle="0" identifier="bRYxxRaQQf"/>
  <guideline x="0" y="555" angle="0" identifier="917FhrihjR"/>
  <outline>
    <contour>
      <point x="259" y="712" type="qcurve"/>
      <point x="259" y="567"/>
      <point x="443" y="373"/>
      <point x="574" y="373" type="qcurve" smooth="yes"/>
      <point x="704" y="373"/>
      <point x="887" y="567"/>
      <point x="887" y="712" type="qcurve" smooth="yes"/>
      <point x="887" y="855"/>
      <point x="704" y="1049"/>
      <point x="574" y="1049" type="qcurve" smooth="yes"/>
      <point x="443" y="1049"/>
      <point x="259" y="855"/>
    </contour>
    <contour>
      <point x="76" y="718" type="qcurve"/>
      <point x="76" y="933"/>
      <point x="372" y="1225"/>
      <point x="573" y="1225" type="qcurve" smooth="yes"/>
      <point x="774" y="1225"/>
      <point x="1070" y="933"/>
      <point x="1070" y="718" type="qcurve" smooth="yes"/>
      <point x="1070" y="504"/>
      <point x="774" y="209"/>
      <point x="573" y="209" type="qcurve" smooth="yes"/>
      <point x="372" y="209"/>
      <point x="76" y="504"/>
    </contour>
    <contour>
      <point x="1117" y="1176" type="line"/>
      <point x="915" y="970" type="line"/>
      <point x="793" y="1097" type="line"/>
      <point x="995" y="1303" type="line"/>
    </contour>
    <contour>
      <point x="333" y="354" type="line"/>
      <point x="131" y="148" type="line"/>
      <point x="10" y="274" type="line"/>
      <point x="212" y="479" type="line"/>
    </contour>
    <contour>
      <point x="1021" y="155" type="line"/>
      <point x="819" y="361" type="line"/>
      <point x="942" y="487" type="line"/>
      <point x="1144" y="282" type="line"/>
    </contour>
    <contour>
      <point x="229" y="984" type="line"/>
      <point x="27" y="1190" type="line"/>
      <point x="148" y="1316" type="line"/>
      <point x="350" y="1110" type="line"/>
    </contour>
  </outline>
</glyph>
<glyph name="dieresis" format="2">
  <advance width="670"/>
  <unicode hex="00A8"/>
  <outline>
    <contour>
      <point x="10" y="1324" type="qcurve" smooth="yes"/>
      <point x="10" y="1369"/>
      <point x="66" y="1431"/>
      <point x="119" y="1431" type="qcurve" smooth="yes"/>
      <point x="173" y="1431"/>
      <point x="229" y="1369"/>
      <point x="229" y="1324" type="qcurve" smooth="yes"/>
      <point x="229" y="1281"/>
      <point x="173" y="1220"/>
      <point x="119" y="1220" type="qcurve" smooth="yes"/>
      <point x="66" y="1220"/>
      <point x="10" y="1281"/>
    </contour>
    <contour>
      <point x="441" y="1324" type="qcurve" smooth="yes"/>
      <point x="441" y="1369"/>
      <point x="496" y="1431"/>
      <point x="550" y="1431" type="qcurve" smooth="yes"/>
      <point x="603" y="1431"/>
      <point x="660" y="1369"/>
      <point x="660" y="1324" type="qcurve" smooth="yes"/>
      <point x="660" y="1281"/>
      <point x="603" y="1220"/>
      <point x="550" y="1220" type="qcurve" smooth="yes"/>
      <point x="496" y="1220"/>
      <point x="441" y="1281"/>
    </contour>
  </outline>
</glyph>
<glyph name="copyright" format="2">
  <advance width="1598"/>
  <unicode hex="00A9"/>
  <guideline x="0" y="901" angle="0" identifier="0Pjz0qKr8z"/>
  <guideline x="0" y="555" angle="0" identifier="sJo8BlDiJ7"/>
  <outline>
    <contour>
      <point x="1002" y="546" type="qcurve"/>
      <point x="1184" y="546" type="line"/>
      <point x="1184" y="375"/>
      <point x="949" y="205"/>
      <point x="785" y="205" type="qcurve" smooth="yes"/>
      <point x="614" y="205"/>
      <point x="391" y="437"/>
      <point x="391" y="664" type="qcurve" smooth="yes"/>
      <point x="391" y="703" type="line" smooth="yes"/>
      <point x="391" y="931"/>
      <point x="615" y="1170"/>
      <point x="802" y="1170" type="qcurve" smooth="yes"/>
      <point x="989" y="1170"/>
      <point x="1185" y="983"/>
      <point x="1185" y="829" type="qcurve"/>
      <point x="1003" y="829" type="line"/>
      <point x="1003" y="917"/>
      <point x="900" y="1006"/>
      <point x="801" y="1006" type="qcurve" smooth="yes"/>
      <point x="694" y="1006"/>
      <point x="584" y="868"/>
      <point x="584" y="747" type="qcurve" smooth="yes"/>
      <point x="584" y="621" type="line" smooth="yes"/>
      <point x="584" y="499"/>
      <point x="703" y="362"/>
      <point x="810" y="362" type="qcurve" smooth="yes"/>
      <point x="909" y="362"/>
      <point x="1002" y="457"/>
    </contour>
    <contour>
      <point x="158" y="687" type="qcurve" smooth="yes"/>
      <point x="158" y="400"/>
      <point x="535" y="4"/>
      <point x="800" y="4" type="qcurve" smooth="yes"/>
      <point x="1064" y="4"/>
      <point x="1441" y="400"/>
      <point x="1441" y="687" type="qcurve" smooth="yes"/>
      <point x="1441" y="975"/>
      <point x="1064" y="1367"/>
      <point x="800" y="1367" type="qcurve" smooth="yes"/>
      <point x="535" y="1367"/>
      <point x="158" y="975"/>
    </contour>
    <contour>
      <point x="10" y="687" type="qcurve" smooth="yes"/>
      <point x="10" y="1039"/>
      <point x="473" y="1519"/>
      <point x="799" y="1519" type="qcurve" smooth="yes"/>
      <point x="1124" y="1519"/>
      <point x="1588" y="1039"/>
      <point x="1588" y="687" type="qcurve" smooth="yes"/>
      <point x="1588" y="337"/>
      <point x="1124" y="-147"/>
      <point x="799" y="-147" type="qcurve" smooth="yes"/>
      <point x="473" y="-147"/>
      <point x="10" y="337"/>
    </contour>
  </outline>
</glyph>
<glyph name="guillemotleft" format="2">
  <advance width="917"/>
  <unicode hex="00AB"/>
  <guideline x="0" y="901" angle="0" identifier="ZftBQarVKw"/>
  <guideline x="0" y="555" angle="0" identifier="MVJpdoVRVd"/>
  <outline>
    <contour>
      <point x="10" y="522" type="line"/>
      <point x="10" y="581" type="line"/>
      <point x="305" y="949" type="line"/>
      <point x="467" y="949" type="line"/>
      <point x="209" y="551" type="line"/>
      <point x="467" y="153" type="line"/>
      <point x="305" y="153" type="line"/>
    </contour>
    <contour>
      <point x="450" y="522" type="line"/>
      <point x="450" y="581" type="line"/>
      <point x="745" y="949" type="line"/>
      <point x="907" y="949" type="line"/>
      <point x="649" y="551" type="line"/>
      <point x="907" y="153" type="line"/>
      <point x="745" y="153" type="line"/>
    </contour>
  </outline>
</glyph>
<glyph name="onesuperior" format="2">
  <advance width="398"/>
  <unicode hex="00B9"/>
  <outline>
    <contour>
      <point x="10" y="1211" type="line"/>
      <point x="10" y="1370" type="line"/>
      <point x="344" y="1486" type="line"/>
      <point x="388" y="1486" type="line"/>
      <point x="388" y="697" type="line"/>
      <point x="226" y="697" type="line"/>
      <point x="226" y="1288" type="line"/>
    </contour>
  </outline>
</glyph>
<glyph name="ordmasculine" format="2">
  <advance width="704"/>
  <unicode hex="00BA"/>
  <guideline x="0" y="1975" angle="0" identifier="Jnt0R9CyOf"/>
  <outline>
    <contour>
      <point x="10" y="1043" type="qcurve"/>
      <point x="10" y="1124" type="line"/>
      <point x="10" y="1278"/>
      <point x="195" y="1477"/>
      <point x="352" y="1477" type="qcurve" smooth="yes"/>
      <point x="510" y="1477"/>
      <point x="694" y="1278"/>
      <point x="694" y="1124" type="qcurve"/>
      <point x="694" y="1043" type="line"/>
      <point x="694" y="889"/>
      <point x="511" y="691"/>
      <point x="354" y="691" type="qcurve" smooth="yes"/>
      <point x="196" y="691"/>
      <point x="10" y="889"/>
    </contour>
    <contour>
      <point x="173" y="1124" type="qcurve"/>
      <point x="173" y="1043" type="line"/>
      <point x="173" y="952"/>
      <point x="262" y="830"/>
      <point x="354" y="830" type="qcurve" smooth="yes"/>
      <point x="443" y="830"/>
      <point x="532" y="952"/>
      <point x="532" y="1043" type="qcurve"/>
      <point x="532" y="1124" type="line"/>
      <point x="532" y="1213"/>
      <point x="442" y="1336"/>
      <point x="352" y="1336" type="qcurve" smooth="yes"/>
      <point x="262" y="1336"/>
      <point x="173" y="1213"/>
    </contour>
  </outline>
</glyph>
<glyph name="guillemotright" format="2">
  <advance width="917"/>
  <unicode hex="00BB"/>
  <guideline x="0" y="98" angle="0" identifier="MTEldNnfdj"/>
  <guideline x="0" y="443" angle="0" identifier="G9bQni2n1K"/>
  <outline>
    <contour>
      <point x="10" y="153" type="line"/>
      <point x="268" y="551" type="line"/>
      <point x="10" y="949" type="line"/>
      <point x="172" y="949" type="line"/>
      <point x="467" y="581" type="line"/>
      <point x="467" y="522" type="line"/>
      <point x="172" y="153" type="line"/>
    </contour>
    <contour>
      <point x="450" y="153" type="line"/>
      <point x="708" y="551" type="line"/>
      <point x="450" y="949" type="line"/>
      <point x="612" y="949" type="line"/>
      <point x="907" y="581" type="line"/>
      <point x="907" y="522" type="line"/>
      <point x="612" y="153" type="line"/>
    </contour>
  </outline>
</glyph>
<glyph name="Thorn" format="2">
  <advance width="970"/>
  <unicode hex="00DE"/>
  <guideline x="0" y="901" angle="0" identifier="i9jYwjBDP4"/>
  <guideline x="0" y="555" angle="0" identifier="T8KKW8oxop"/>
  <outline>
    <contour>
      <point x="10" y="1456" type="line"/>
      <point x="195" y="1456" type="line"/>
      <point x="195" y="1163" type="line"/>
      <point x="473" y="1163" type="line" smooth="yes"/>
      <point x="708" y="1163"/>
      <point x="960" y="935"/>
      <point x="960" y="738" type="qcurve" smooth="yes"/>
      <point x="960" y="541"/>
      <point x="708" y="314"/>
      <point x="473" y="314" type="qcurve" smooth="yes"/>
      <point x="195" y="314" type="line"/>
      <point x="195" y="0" type="line"/>
      <point x="10" y="0" type="line"/>
    </contour>
    <contour>
      <point x="473" y="1012" type="qcurve" smooth="yes"/>
      <point x="195" y="1012" type="line"/>
      <point x="195" y="465" type="line"/>
      <point x="473" y="465" type="line" smooth="yes"/>
      <point x="633" y="465"/>
      <point x="775" y="604"/>
      <point x="775" y="736" type="qcurve" smooth="yes"/>
      <point x="775" y="868"/>
      <point x="633" y="1012"/>
    </contour>
  </outline>
</glyph>
<glyph name="Schwa" format="2">
  <advance width="1322"/>
  <unicode hex="018F"/>
  <outline>
    <contour>
      <point x="10" y="1199" type="line"/>
      <point x="108" y="1356"/>
      <point x="398" y="1519"/>
      <point x="615" y="1519" type="qcurve" smooth="yes"/>
      <point x="948" y="1519"/>
      <point x="1312" y="1094"/>
      <point x="1312" y="789" type="qcurve" smooth="yes"/>
      <point x="1312" y="445"/>
      <point x="928" y="-30"/>
      <point x="638" y="-30" type="qcurve" smooth="yes"/>
      <point x="362" y="-30"/>
      <point x="48" y="281"/>
      <point x="48" y="578" type="qcurve" smooth="yes"/>
      <point x="48" y="686" type="line"/>
      <point x="1174" y="686" type="line"/>
      <point x="1174" y="554" type="line"/>
      <point x="611" y="562" type="line"/>
      <point x="244" y="556" type="line"/>
      <point x="244" y="481" type="line" smooth="yes"/>
      <point x="244" y="315"/>
      <point x="449" y="97"/>
      <point x="648" y="97" type="qcurve" smooth="yes"/>
      <point x="858" y="97"/>
      <point x="1123" y="462"/>
      <point x="1121" y="749" type="qcurve" smooth="yes"/>
      <point x="1119" y="1047"/>
      <point x="806" y="1375"/>
      <point x="597" y="1375" type="qcurve" smooth="yes"/>
      <point x="415" y="1375"/>
      <point x="164" y="1234"/>
      <point x="103" y="1126" type="qcurve"/>
    </contour>
  </outline>
</glyph>
<glyph name="schwa" format="2">
  <advance width="943"/>
  <unicode hex="0259"/>
  <outline>
    <contour>
      <point x="933" y="542" type="qcurve" smooth="yes"/>
      <point x="933" y="510" type="line" smooth="yes"/>
      <point x="933" y="272"/>
      <point x="672" y="-30"/>
      <point x="457" y="-30" type="qcurve" smooth="yes"/>
      <point x="242" y="-30"/>
      <point x="10" y="252"/>
      <point x="10" y="492" type="qcurve" smooth="yes"/>
      <point x="10" y="568" type="line"/>
      <point x="819" y="568" type="line"/>
      <point x="819" y="420" type="line"/>
      <point x="198" y="420" type="line"/>
      <point x="197" y="396" type="line"/>
      <point x="198" y="282"/>
      <point x="327" y="122"/>
      <point x="449" y="122" type="qcurve" smooth="yes"/>
      <point x="597" y="122"/>
      <point x="743" y="347"/>
      <point x="743" y="510" type="qcurve" smooth="yes"/>
      <point x="743" y="542" type="line" smooth="yes"/>
      <point x="743" y="705"/>
      <point x="589" y="930"/>
      <point x="427" y="930" type="qcurve" smooth="yes"/>
      <point x="327" y="930"/>
      <point x="183" y="842"/>
      <point x="138" y="782" type="qcurve"/>
      <point x="18" y="877" type="line"/>
      <point x="68" y="952"/>
      <point x="277" y="1082"/>
      <point x="427" y="1082" type="qcurve" smooth="yes"/>
      <point x="672" y="1082"/>
      <point x="933" y="780"/>
    </contour>
  </outline>
</glyph>
<glyph name="apostrophemod" format="2">
  <advance width="327"/>
  <unicode hex="02BC"/>
  <outline>
    <contour>
      <point x="10" y="1062" type="line"/>
      <point x="50" y="1092"/>
      <point x="154" y="1210"/>
      <point x="169" y="1277" type="qcurve"/>
      <point x="98" y="1277"/>
      <point x="18" y="1352"/>
      <point x="18" y="1411" type="qcurve" smooth="yes"/>
      <point x="18" y="1469"/>
      <point x="99" y="1546"/>
      <point x="162" y="1546" type="qcurve" smooth="yes"/>
      <point x="221" y="1546"/>
      <point x="317" y="1450"/>
      <point x="317" y="1373" type="qcurve" smooth="yes"/>
      <point x="317" y="1251"/>
      <point x="158" y="1063"/>
      <point x="53" y="1013" type="qcurve"/>
    </contour>
  </outline>
</glyph>
<glyph name="ring" format="2">
  <advance width="472"/>
  <unicode hex="02DA"/>
  <outline>
    <contour>
      <point x="10" y="1434" type="qcurve"/>
      <point x="10" y="1524"/>
      <point x="140" y="1652"/>
      <point x="236" y="1652" type="qcurve" smooth="yes"/>
      <point x="330" y="1652"/>
      <point x="462" y="1524"/>
      <point x="462" y="1434" type="qcurve" smooth="yes"/>
      <point x="462" y="1343"/>
      <point x="330" y="1220"/>
      <point x="236" y="1220" type="qcurve" smooth="yes"/>
      <point x="140" y="1220"/>
      <point x="10" y="1343"/>
    </contour>
    <contour>
      <point x="120" y="1434" type="qcurve"/>
      <point x="120" y="1390"/>
      <point x="185" y="1319"/>
      <point x="236" y="1319" type="qcurve" smooth="yes"/>
      <point x="287" y="1319"/>
      <point x="352" y="1388"/>
      <point x="352" y="1434" type="qcurve" smooth="yes"/>
      <point x="352" y="1480"/>
      <point x="287" y="1552"/>
      <point x="236" y="1552" type="qcurve" smooth="yes"/>
      <point x="185" y="1552"/>
      <point x="120" y="1480"/>
    </contour>
  </outline>
</glyph>
<glyph name="tilde" format="2">
  <advance width="775"/>
  <unicode hex="02DC"/>
  <outline>
    <contour>
      <point x="10" y="1326" type="line"/>
      <point x="43" y="1389"/>
      <point x="181" y="1487"/>
      <point x="248" y="1487" type="qcurve" smooth="yes"/>
      <point x="289" y="1487"/>
      <point x="364" y="1462"/>
      <point x="401" y="1438" type="qcurve" smooth="yes"/>
      <point x="435" y="1416"/>
      <point x="513" y="1372"/>
      <point x="551" y="1372" type="qcurve" smooth="yes"/>
      <point x="591" y="1372"/>
      <point x="661" y="1425"/>
      <point x="684" y="1461" type="qcurve"/>
      <point x="765" y="1363" type="line"/>
      <point x="727" y="1292"/>
      <point x="594" y="1220"/>
      <point x="537" y="1220" type="qcurve" smooth="yes"/>
      <point x="488" y="1220"/>
      <point x="394" y="1263"/>
      <point x="363" y="1280" type="qcurve" smooth="yes"/>
      <point x="329" y="1299"/>
      <point x="261" y="1333"/>
      <point x="232" y="1333" type="qcurve" smooth="yes"/>
      <point x="185" y="1333"/>
      <point x="104" y="1261"/>
      <point x="86" y="1234" type="qcurve"/>
    </contour>
  </outline>
</glyph>
<glyph name="hungarumlaut" format="2">
  <advance width="714"/>
  <unicode hex="02DD"/>
  <outline>
    <contour>
      <point x="10" y="1290" type="line"/>
      <point x="251" y="1584" type="line"/>
      <point x="394" y="1479" type="line"/>
      <point x="95" y="1204" type="line"/>
    </contour>
    <contour>
      <point x="320" y="1290" type="line"/>
      <point x="561" y="1584" type="line"/>
      <point x="704" y="1479" type="line"/>
      <point x="405" y="1204" type="line"/>
    </contour>
  </outline>
</glyph>
<glyph name="horncomb" format="2">
  <advance width="400"/>
  <unicode hex="031B"/>
  <anchor x="80" y="1052" name="_topright"/>
  <anchor x="80" y="1293" name="topright"/>
  <outline>
    <contour>
      <point x="10" y="1052" type="line"/>
      <point x="94" y="1052" type="line" smooth="yes"/>
      <point x="142" y="1052"/>
      <point x="214" y="1086"/>
      <point x="214" y="1138" type="qcurve" smooth="yes"/>
      <point x="214" y="1184"/>
      <point x="201" y="1257"/>
      <point x="191" y="1293" type="qcurve"/>
      <point x="337" y="1293" type="line"/>
      <point x="357" y="1260"/>
      <point x="390" y="1157"/>
      <point x="390" y="1093" type="qcurve" smooth="yes"/>
      <point x="390" y="1005"/>
      <point x="250" y="920"/>
      <point x="154" y="920" type="qcurve" smooth="yes"/>
      <point x="108" y="920"/>
      <point x="36" y="932"/>
      <point x="10" y="941" type="qcurve"/>
    </contour>
  </outline>
</glyph>
<glyph name="dieresisbelowcomb" format="2">
  <advance width="712"/>
  <unicode hex="0324"/>
  <anchor x="356" y="0" name="_bottom"/>
  <anchor x="356" y="-441" name="bottom"/>
  <outline>
    <contour>
      <point x="10" y="-328" type="qcurve" smooth="yes"/>
      <point x="10" y="-273"/>
      <point x="70" y="-214"/>
      <point x="126" y="-214" type="qcurve" smooth="yes"/>
      <point x="179" y="-214"/>
      <point x="242" y="-277"/>
      <point x="242" y="-328" type="qcurve" smooth="yes"/>
      <point x="242" y="-382"/>
      <point x="183" y="-441"/>
      <point x="126" y="-441" type="qcurve" smooth="yes"/>
      <point x="73" y="-441"/>
      <point x="10" y="-379"/>
    </contour>
    <contour>
      <point x="470" y="-328" type="qcurve" smooth="yes"/>
      <point x="470" y="-273"/>
      <point x="530" y="-214"/>
      <point x="586" y="-214" type="qcurve" smooth="yes"/>
      <point x="639" y="-214"/>
      <point x="702" y="-277"/>
      <point x="702" y="-328" type="qcurve" smooth="yes"/>
      <point x="702" y="-382"/>
      <point x="643" y="-441"/>
      <point x="586" y="-441" type="qcurve" smooth="yes"/>
      <point x="533" y="-441"/>
      <point x="470" y="-379"/>
    </contour>
  </outline>
</glyph>
<glyph name="Delta" format="2">
  <advance width="1257"/>
  <unicode hex="0394"/>
  <outline>
    <contour>
      <point x="10" y="0" type="line"/>
      <point x="10" y="107" type="line"/>
      <point x="542" y="1466" type="line"/>
      <point x="714" y="1466" type="line"/>
      <point x="1247" y="107" type="line"/>
      <point x="1247" y="0" type="line"/>
    </contour>
    <contour>
      <point x="221" y="158" type="line"/>
      <point x="1028" y="158" type="line"/>
      <point x="668" y="1100" type="line" smooth="yes"/>
      <point x="655" y="1133"/>
      <point x="638" y="1195"/>
      <point x="631" y="1228" type="qcurve"/>
      <point x="621" y="1228" type="line"/>
      <point x="614" y="1195"/>
      <point x="596" y="1133"/>
      <point x="584" y="1100" type="qcurve" smooth="yes"/>
    </contour>
  </outline>
</glyph>
<glyph name="Omega" format="2">
  <advance width="1268"/>
  <unicode hex="03A9"/>
  <outline>
    <contour>
      <point x="10" y="0" type="line"/>
      <point x="10" y="159" type="line"/>
      <point x="342" y="159" type="line"/>
      <point x="342" y="309" type="line"/>
      <point x="186" y="371"/>
      <point x="10" y="626"/>
      <point x="10" y="835" type="qcurve"/>
      <point x="10" y="891" type="line"/>
      <point x="10" y="1171"/>
      <point x="350" y="1486"/>
      <point x="634" y="1486" type="qcurve"/>
      <point x="918" y="1486"/>
      <point x="1258" y="1171"/>
      <point x="1258" y="891" type="qcurve"/>
      <point x="1258" y="835" type="line"/>
      <point x="1258" y="626"/>
      <point x="1082" y="371"/>
      <point x="926" y="309" type="qcurve"/>
      <point x="926" y="159" type="line"/>
      <point x="1258" y="159" type="line"/>
      <point x="1258" y="0" type="line"/>
      <point x="754" y="0" type="line"/>
      <point x="754" y="437" type="line"/>
      <point x="913" y="468"/>
      <point x="1064" y="684"/>
      <point x="1064" y="835" type="qcurve"/>
      <point x="1064" y="891" type="line"/>
      <point x="1064" y="1095"/>
      <point x="835" y="1322"/>
      <point x="634" y="1322" type="qcurve"/>
      <point x="433" y="1322"/>
      <point x="204" y="1095"/>
      <point x="204" y="891" type="qcurve"/>
      <point x="204" y="835" type="line"/>
      <point x="204" y="684"/>
      <point x="355" y="468"/>
      <point x="514" y="437" type="qcurve"/>
      <point x="514" y="0" type="line"/>
    </contour>
  </outline>
</glyph>
<glyph name="lambda" format="2">
  <advance width="981"/>
  <unicode hex="03BB"/>
  <outline>
    <contour>
      <point x="10" y="0" type="line"/>
      <point x="413" y="1048" type="line"/>
      <point x="391" y="1110" type="line" smooth="yes"/>
      <point x="333" y="1277"/>
      <point x="247" y="1396"/>
      <point x="169" y="1396" type="qcurve" smooth="yes"/>
      <point x="143" y="1396"/>
      <point x="76" y="1389"/>
      <point x="50" y="1381" type="qcurve"/>
      <point x="50" y="1536" type="line"/>
      <point x="78" y="1546"/>
      <point x="147" y="1556"/>
      <point x="182" y="1556" type="qcurve" smooth="yes"/>
      <point x="306" y="1556"/>
      <point x="453" y="1414"/>
      <point x="512" y="1252" type="qcurve" smooth="yes"/>
      <point x="971" y="0" type="line"/>
      <point x="771" y="0" type="line"/>
      <point x="549" y="637" type="line" smooth="yes"/>
      <point x="529" y="693"/>
      <point x="513" y="757"/>
      <point x="501" y="808" type="qcurve"/>
      <point x="495" y="808" type="line"/>
      <point x="484" y="759"/>
      <point x="462" y="679"/>
      <point x="446" y="637" type="qcurve" smooth="yes"/>
      <point x="210" y="0" type="line"/>
    </contour>
  </outline>
</glyph>
<glyph name="mu" format="2">
  <advance width="1036"/>
  <unicode hex="03BC"/>
  <outline>
    <contour>
      <point x="10" y="-416" type="line"/>
      <point x="10" y="1052" type="line"/>
      <point x="196" y="1052" type="line"/>
      <point x="196" y="272" type="line"/>
      <point x="232" y="211"/>
      <point x="366" y="132"/>
      <point x="442" y="132" type="qcurve" smooth="yes"/>
      <point x="534" y="132"/>
      <point x="676" y="268"/>
      <point x="676" y="357" type="qcurve" smooth="yes"/>
      <point x="676" y="1052" type="line"/>
      <point x="862" y="1052" type="line"/>
      <point x="862" y="262" type="line" smooth="yes"/>
      <point x="862" y="187"/>
      <point x="908" y="130"/>
      <point x="953" y="130" type="qcurve" smooth="yes"/>
      <point x="973" y="130"/>
      <point x="1009" y="137"/>
      <point x="1026" y="144" type="qcurve"/>
      <point x="1026" y="-8" type="line"/>
      <point x="1007" y="-17"/>
      <point x="952" y="-30"/>
      <point x="916" y="-30" type="qcurve"/>
      <point x="817" y="-30"/>
      <point x="706" y="54"/>
      <point x="692" y="130" type="qcurve"/>
      <point x="686" y="130" type="line"/>
      <point x="650" y="68"/>
      <point x="516" y="-20"/>
      <point x="444" y="-20" type="qcurve" smooth="yes"/>
      <point x="349" y="-20"/>
      <point x="231" y="33"/>
      <point x="196" y="74" type="qcurve"/>
      <point x="196" y="-416" type="line"/>
    </contour>
  </outline>
</glyph>
<glyph name="rho" format="2">
  <advance width="957"/>
  <unicode hex="03C1"/>
  <outline>
    <contour>
      <point x="10" y="-416" type="line"/>
      <point x="10" y="541" type="line" smooth="yes"/>
      <point x="10" y="788"/>
      <point x="260" y="1072"/>
      <point x="477" y="1072" type="qcurve" smooth="yes"/>
      <point x="717" y="1072"/>
      <point x="947" y="782"/>
      <point x="947" y="552" type="qcurve" smooth="yes"/>
      <point x="947" y="520" type="line" smooth="yes"/>
      <point x="947" y="290"/>
      <point x="707" y="-20"/>
      <point x="507" y="-20" type="qcurve" smooth="yes"/>
      <point x="397" y="-20"/>
      <point x="242" y="59"/>
      <point x="196" y="124" type="qcurve"/>
      <point x="196" y="-416" type="line"/>
    </contour>
    <contour>
      <point x="467" y="132" type="qcurve" smooth="yes"/>
      <point x="617" y="132"/>
      <point x="757" y="360"/>
      <point x="757" y="520" type="qcurve" smooth="yes"/>
      <point x="757" y="552" type="line" smooth="yes"/>
      <point x="757" y="712"/>
      <point x="627" y="920"/>
      <point x="477" y="920" type="qcurve" smooth="yes"/>
      <point x="357" y="920"/>
      <point x="196" y="750"/>
      <point x="196" y="546" type="qcurve" smooth="yes"/>
      <point x="196" y="312" type="line"/>
      <point x="227" y="242"/>
      <point x="367" y="132"/>
    </contour>
  </outline>
</glyph>
<glyph name="tau" format="2">
  <advance width="790"/>
  <unicode hex="03C4"/>
  <outline>
    <contour>
      <point x="10" y="900" type="line"/>
      <point x="10" y="1052" type="line"/>
      <point x="780" y="1052" type="line"/>
      <point x="780" y="900" type="line"/>
    </contour>
    <contour>
      <point x="540" y="-30" type="qcurve" smooth="yes"/>
      <point x="425" y="-30"/>
      <point x="288" y="110"/>
      <point x="288" y="260" type="qcurve" smooth="yes"/>
      <point x="288" y="971" type="line"/>
      <point x="474" y="971" type="line"/>
      <point x="474" y="260" type="line" smooth="yes"/>
      <point x="474" y="190"/>
      <point x="530" y="130"/>
      <point x="590" y="130" type="qcurve" smooth="yes"/>
      <point x="618" y="130"/>
      <point x="672" y="142"/>
      <point x="700" y="152" type="qcurve"/>
      <point x="700" y="0" type="line"/>
      <point x="674" y="-12"/>
      <point x="590" y="-30"/>
    </contour>
  </outline>
</glyph>
<glyph name="upsilon" format="2">
  <advance width="872"/>
  <unicode hex="03C5"/>
  <outline>
    <contour>
      <point x="436" y="-20" type="qcurve" smooth="yes"/>
      <point x="209" y="-20"/>
      <point x="10" y="201"/>
      <point x="10" y="403" type="qcurve" smooth="yes"/>
      <point x="10" y="1052" type="line"/>
      <point x="196" y="1052" type="line"/>
      <point x="196" y="401" type="line" smooth="yes"/>
      <point x="196" y="275"/>
      <point x="312" y="136"/>
      <point x="436" y="136" type="qcurve" smooth="yes"/>
      <point x="560" y="136"/>
      <point x="678" y="275"/>
      <point x="676" y="401" type="qcurve" smooth="yes"/>
      <point x="676" y="1052" type="line"/>
      <point x="862" y="1052" type="line"/>
      <point x="862" y="403" type="line" smooth="yes"/>
      <point x="862" y="201"/>
      <point x="663" y="-20"/>
    </contour>
  </outline>
</glyph>
<glyph name="chi" format="2">
  <advance width="959"/>
  <unicode hex="03C7"/>
  <outline>
    <contour>
      <point x="735" y="-416" type="line"/>
      <point x="426" y="270" type="line"/>
      <point x="417" y="270" type="line"/>
      <point x="14" y="1052" type="line"/>
      <point x="227" y="1052" type="line"/>
      <point x="521" y="418" type="line"/>
      <point x="531" y="418" type="line"/>
      <point x="949" y="-416" type="line"/>
    </contour>
    <contour>
      <point x="10" y="-416" type="line"/>
      <point x="440" y="438" type="line"/>
      <point x="457" y="438" type="line"/>
      <point x="729" y="1052" type="line"/>
      <point x="939" y="1052" type="line"/>
      <point x="556" y="283" type="line"/>
      <point x="539" y="283" type="line"/>
      <point x="220" y="-416" type="line"/>
    </contour>
  </outline>
</glyph>
<glyph name="Ieukran" format="2">
  <advance width="1180"/>
  <unicode hex="0404"/>
  <guideline x="211" y="787" angle="90" identifier="mFTeE97JTj"/>
  <outline>
    <contour>
      <point x="107" y="830" type="line"/>
      <point x="831" y="830" type="line"/>
      <point x="831" y="672" type="line"/>
      <point x="107" y="672" type="line"/>
    </contour>
    <contour>
      <point x="10" y="682" type="qcurve" smooth="yes"/>
      <point x="10" y="774" type="line" smooth="yes"/>
      <point x="10" y="1110"/>
      <point x="355" y="1486"/>
      <point x="615" y="1486" type="qcurve" smooth="yes"/>
      <point x="875" y="1486"/>
      <point x="1170" y="1201"/>
      <point x="1170" y="1000" type="qcurve" smooth="yes"/>
      <point x="1170" y="990" type="line"/>
      <point x="978" y="990" type="line"/>
      <point x="978" y="1000" type="line" smooth="yes"/>
      <point x="978" y="1139"/>
      <point x="798" y="1322"/>
      <point x="615" y="1322" type="qcurve" smooth="yes"/>
      <point x="436" y="1322"/>
      <point x="204" y="1052"/>
      <point x="204" y="797" type="qcurve" smooth="yes"/>
      <point x="204" y="674" type="line" smooth="yes"/>
      <point x="204" y="426"/>
      <point x="435" y="134"/>
      <point x="615" y="134" type="qcurve" smooth="yes"/>
      <point x="787" y="134"/>
      <point x="963" y="320"/>
      <point x="977" y="456" type="qcurve" smooth="yes"/>
      <point x="978" y="466" type="line"/>
      <point x="1170" y="466" type="line"/>
      <point x="1169" y="456" type="line" smooth="yes"/>
      <point x="1149" y="256"/>
      <point x="875" y="-30"/>
      <point x="615" y="-30" type="qcurve" smooth="yes"/>
      <point x="355" y="-30"/>
      <point x="10" y="346"/>
    </contour>
  </outline>
</glyph>
<glyph name="Che" format="2">
  <advance width="1098"/>
  <unicode hex="0427"/>
  <guideline x="1123" y="741" angle="90" identifier="nfCxFSb4p1"/>
  <outline>
    <contour>
      <point x="202" y="1032" type="line" smooth="yes"/>
      <point x="202" y="854"/>
      <point x="365" y="734"/>
      <point x="563" y="734" type="qcurve" smooth="yes"/>
      <point x="681.723255814" y="734"/>
      <point x="892.2227245401" y="754.0467721534"/>
      <point x="992" y="775" type="qcurve"/>
      <point x="992" y="617" type="line"/>
      <point x="858.2932112512" y="595.0481391606"/>
      <point x="672.7191011236" y="576"/>
      <point x="548" y="576" type="qcurve" smooth="yes"/>
      <point x="237" y="576"/>
      <point x="10" y="807"/>
      <point x="10" y="1035" type="qcurve" smooth="yes"/>
      <point x="10" y="1456" type="line"/>
      <point x="202" y="1456" type="line"/>
    </contour>
    <contour>
      <point x="1088" y="1456" type="line"/>
      <point x="1088" y="0" type="line"/>
      <point x="896" y="0" type="line"/>
      <point x="896" y="1456" type="line"/>
    </contour>
  </outline>
</glyph>
<glyph name="Shcha" format="2">
  <advance width="1804"/>
  <unicode hex="0429"/>
  <outline>
    <contour>
      <point x="10" y="1456" type="line"/>
      <point x="202" y="1456" type="line"/>
      <point x="202" y="158" type="line"/>
      <point x="716" y="158" type="line"/>
      <point x="716" y="1456" type="line"/>
      <point x="908" y="1456" type="line"/>
      <point x="908" y="158" type="line"/>
      <point x="1422" y="158" type="line"/>
      <point x="1422" y="1456" type="line"/>
      <point x="1614" y="1456" type="line"/>
      <point x="1614" y="158" type="line"/>
      <point x="1794" y="158" type="line"/>
      <point x="1794" y="-290" type="line"/>
      <point x="1622" y="-290" type="line"/>
      <point x="1622" y="0" type="line"/>
      <point x="10" y="0" type="line"/>
    </contour>
  </outline>
</glyph>
<glyph name="Yu" format="2">
  <advance width="1695"/>
  <unicode hex="042E"/>
  <guideline x="732" y="785" angle="90" identifier="6nH5tb4DEh"/>
  <outline>
    <contour>
      <point x="10" y="0" type="line"/>
      <point x="10" y="1456" type="line"/>
      <point x="202" y="1456" type="line"/>
      <point x="202" y="830" type="line"/>
      <point x="572" y="830" type="line"/>
      <point x="572" y="672" type="line"/>
      <point x="202" y="672" type="line"/>
      <point x="202" y="0" type="line"/>
    </contour>
    <contour>
      <point x="475" y="682" type="qcurve" smooth="yes"/>
      <point x="475" y="774" type="line" smooth="yes"/>
      <point x="475" y="1110"/>
      <point x="804" y="1486"/>
      <point x="1080" y="1486" type="qcurve" smooth="yes"/>
      <point x="1356" y="1486"/>
      <point x="1685" y="1110"/>
      <point x="1685" y="774" type="qcurve" smooth="yes"/>
      <point x="1685" y="682" type="line" smooth="yes"/>
      <point x="1685" y="346"/>
      <point x="1356" y="-30"/>
      <point x="1080" y="-30" type="qcurve" smooth="yes"/>
      <point x="804" y="-30"/>
      <point x="475" y="346"/>
    </contour>
    <contour>
      <point x="669" y="682" type="line" smooth="yes"/>
      <point x="669" y="426"/>
      <point x="884" y="134"/>
      <point x="1080" y="134" type="qcurve" smooth="yes"/>
      <point x="1275" y="134"/>
      <point x="1491" y="426"/>
      <point x="1491" y="682" type="qcurve" smooth="yes"/>
      <point x="1491" y="774" type="line" smooth="yes"/>
      <point x="1491" y="1030"/>
      <point x="1275" y="1322"/>
      <point x="1080" y="1322" type="qcurve" smooth="yes"/>
      <point x="884" y="1322"/>
      <point x="669" y="1030"/>
      <point x="669" y="774" type="qcurve" smooth="yes"/>
    </contour>
  </outline>
</glyph>
<glyph name="Ya" format="2">
  <advance width="1060"/>
  <unicode hex="042F"/>
  <outline>
    <contour>
      <point x="1050" y="0" type="line"/>
      <point x="1050" y="1456" type="line"/>
      <point x="576" y="1456" type="line" smooth="yes"/>
      <point x="342" y="1456"/>
      <point x="88" y="1222"/>
      <point x="88" y="1028" type="qcurve" smooth="yes"/>
      <point x="88" y="858.2014051522"/>
      <point x="287.0250885217" y="629.9964740456"/>
      <point x="472" y="604" type="qcurve"/>
      <point x="517" y="594" type="line"/>
      <point x="858" y="594" type="line"/>
      <point x="858" y="0" type="line"/>
    </contour>
    <contour>
      <point x="858" y="750" type="line"/>
      <point x="576" y="750" type="line" smooth="yes"/>
      <point x="410" y="750"/>
      <point x="280" y="912"/>
      <point x="280" y="1028" type="qcurve" smooth="yes"/>
      <point x="280" y="1144"/>
      <point x="410" y="1300"/>
      <point x="576" y="1300" type="qcurve" smooth="yes"/>
      <point x="858" y="1300" type="line"/>
    </contour>
    <contour>
      <point x="218" y="0" type="line"/>
      <point x="575" y="672" type="line"/>
      <point x="374" y="672" type="line"/>
      <point x="10" y="0" type="line"/>
    </contour>
  </outline>
</glyph>
<glyph name="be" format="2">
  <advance width="1012"/>
  <unicode hex="0431"/>
  <outline>
    <contour>
      <point x="200" y="522" type="qcurve" smooth="yes"/>
      <point x="200" y="490" type="line" smooth="yes"/>
      <point x="200" y="335"/>
      <point x="354" y="122"/>
      <point x="506" y="122" type="qcurve" smooth="yes"/>
      <point x="658" y="122"/>
      <point x="812" y="335"/>
      <point x="812" y="490" type="qcurve" smooth="yes"/>
      <point x="812" y="522" type="line" smooth="yes"/>
      <point x="812" y="677"/>
      <point x="658" y="890"/>
      <point x="506" y="890" type="qcurve" smooth="yes"/>
      <point x="354" y="890"/>
      <point x="200" y="677"/>
    </contour>
    <contour>
      <point x="552" y="1042" type="qcurve" smooth="yes"/>
      <point x="761" y="1042"/>
      <point x="1002" y="745"/>
      <point x="1002" y="522" type="qcurve" smooth="yes"/>
      <point x="1002" y="490" type="line" smooth="yes"/>
      <point x="1002" y="261"/>
      <point x="732" y="-30"/>
      <point x="506" y="-30" type="qcurve" smooth="yes"/>
      <point x="272" y="-30"/>
      <point x="10" y="263"/>
      <point x="10" y="605" type="qcurve" smooth="yes"/>
      <point x="10" y="631" type="line" smooth="yes"/>
      <point x="10" y="999"/>
      <point x="253" y="1397"/>
      <point x="582" y="1447" type="qcurve" smooth="yes"/>
      <point x="753.8928000361" y="1473.2209355987"/>
      <point x="807.0055992277" y="1511.0279961385"/>
      <point x="812" y="1536" type="qcurve"/>
      <point x="976" y="1536" type="line"/>
      <point x="965" y="1431"/>
      <point x="818" y="1308"/>
      <point x="603" y="1279" type="qcurve" smooth="yes"/>
      <point x="347.009254284" y="1245.0012290846"/>
      <point x="168.9647773758" y="995.5959757812"/>
      <point x="152" y="801" type="qcurve"/>
      <point x="163" y="801" type="line"/>
      <point x="215" y="913"/>
      <point x="415" y="1042"/>
    </contour>
  </outline>
</glyph>
<glyph name="zhe" format="2">
  <advance width="1465"/>
  <unicode hex="0436"/>
  <outline>
    <contour>
      <point x="820" y="0" type="line"/>
      <point x="640" y="0" type="line"/>
      <point x="640" y="1052" type="line"/>
      <point x="820" y="1052" type="line"/>
    </contour>
    <contour>
      <point x="1245" y="0" type="line"/>
      <point x="914" y="472" type="line"/>
      <point x="1034" y="591" type="line"/>
      <point x="1455" y="0" type="line"/>
    </contour>
    <contour>
      <point x="730" y="610" type="line"/>
      <point x="909" y="610" type="line"/>
      <point x="1214" y="1052" type="line"/>
      <point x="1418" y="1052" type="line"/>
      <point x="1006" y="465" type="line"/>
      <point x="730" y="465" type="line"/>
    </contour>
    <contour>
      <point x="215" y="0" type="line"/>
      <point x="10" y="0" type="line"/>
      <point x="431" y="591" type="line"/>
      <point x="544" y="472" type="line"/>
    </contour>
    <contour>
      <point x="730" y="610" type="line"/>
      <point x="730" y="465" type="line"/>
      <point x="452" y="465" type="line"/>
      <point x="40" y="1052" type="line"/>
      <point x="246" y="1052" type="line"/>
      <point x="551" y="610" type="line"/>
    </contour>
  </outline>
</glyph>
<glyph name="icyr" format="2">
  <advance width="882"/>
  <unicode hex="0438"/>
  <outline>
    <contour>
      <point x="10" y="0" type="line"/>
      <point x="10" y="1052" type="line"/>
      <point x="193" y="1052" type="line"/>
      <point x="193" y="403" type="line" smooth="yes"/>
      <point x="193" y="373"/>
      <point x="192" y="298"/>
      <point x="191" y="268" type="qcurve"/>
      <point x="201" y="268" type="line"/>
      <point x="215" y="293"/>
      <point x="250" y="352"/>
      <point x="269" y="383" type="qcurve" smooth="yes"/>
      <point x="686" y="1052" type="line"/>
      <point x="872" y="1052" type="line"/>
      <point x="872" y="0" type="line"/>
      <point x="689" y="0" type="line"/>
      <point x="689" y="648" type="line" smooth="yes"/>
      <point x="689" y="678"/>
      <point x="692" y="758"/>
      <point x="694" y="788" type="qcurve"/>
      <point x="679" y="788" type="line"/>
      <point x="667" y="763"/>
      <point x="632" y="699"/>
      <point x="613" y="668" type="qcurve" smooth="yes"/>
      <point x="196" y="0" type="line"/>
    </contour>
  </outline>
</glyph>
<glyph name="ka" format="2">
  <advance width="930"/>
  <unicode hex="043A"/>
  <guideline x="241" y="553" angle="90" identifier="lmgRx0QBdK"/>
  <outline>
    <contour>
      <point x="692" y="0" type="line"/>
      <point x="273" y="477" type="line"/>
      <point x="387" y="603" type="line"/>
      <point x="920" y="0" type="line"/>
    </contour>
    <contour>
      <point x="103" y="610" type="line"/>
      <point x="282" y="610" type="line"/>
      <point x="667" y="1052" type="line"/>
      <point x="885" y="1052" type="line"/>
      <point x="370" y="465" type="line"/>
      <point x="103" y="465" type="line"/>
    </contour>
    <contour>
      <point x="196" y="1052" type="line"/>
      <point x="196" y="0" type="line"/>
      <point x="10" y="0" type="line"/>
      <point x="10" y="1052" type="line"/>
    </contour>
  </outline>
</glyph>
<glyph name="shcha" format="2">
  <advance width="1553"/>
  <unicode hex="0449"/>
  <outline>
    <contour>
      <point x="10" y="0" type="line"/>
      <point x="10" y="1052" type="line"/>
      <point x="196" y="1052" type="line"/>
      <point x="196" y="145" type="line"/>
      <point x="606" y="145" type="line"/>
      <point x="606" y="1052" type="line"/>
      <point x="792" y="1052" type="line"/>
      <point x="792" y="145" type="line"/>
      <point x="1202" y="145" type="line"/>
      <point x="1202" y="1052" type="line"/>
      <point x="1388" y="1052" type="line"/>
      <point x="1388" y="145" type="line"/>
      <point x="1543" y="145" type="line"/>
      <point x="1543" y="-270" type="line"/>
      <point x="1375" y="-270" type="line"/>
      <point x="1375" y="0" type="line"/>
    </contour>
  </outline>
</glyph>
<glyph name="yu" format="2">
  <advance width="1394"/>
  <unicode hex="044E"/>
  <guideline x="645" y="487" angle="90" identifier="5WLHpa9SA0"/>
  <outline>
    <contour>
      <point x="10" y="1052" type="line"/>
      <point x="196" y="1052" type="line"/>
      <point x="196" y="610" type="line"/>
      <point x="508" y="610" type="line"/>
      <point x="508" y="465" type="line"/>
      <point x="196" y="465" type="line"/>
      <point x="196" y="0" type="line"/>
      <point x="10" y="0" type="line"/>
    </contour>
    <contour>
      <point x="412" y="510" type="qcurve" smooth="yes"/>
      <point x="412" y="542" type="line" smooth="yes"/>
      <point x="412" y="780"/>
      <point x="676" y="1082"/>
      <point x="898" y="1082" type="qcurve" smooth="yes"/>
      <point x="1120" y="1082"/>
      <point x="1384" y="780"/>
      <point x="1384" y="542" type="qcurve" smooth="yes"/>
      <point x="1384" y="510" type="line" smooth="yes"/>
      <point x="1384" y="272"/>
      <point x="1120" y="-30"/>
      <point x="898" y="-30" type="qcurve" smooth="yes"/>
      <point x="676" y="-30"/>
      <point x="412" y="272"/>
    </contour>
    <contour>
      <point x="602" y="542" type="qcurve" smooth="yes"/>
      <point x="602" y="510" type="line" smooth="yes"/>
      <point x="602" y="347"/>
      <point x="750" y="122"/>
      <point x="898" y="122" type="qcurve" smooth="yes"/>
      <point x="1046" y="122"/>
      <point x="1194" y="347"/>
      <point x="1194" y="510" type="qcurve" smooth="yes"/>
      <point x="1194" y="542" type="line" smooth="yes"/>
      <point x="1194" y="705"/>
      <point x="1046" y="930"/>
      <point x="898" y="930" type="qcurve" smooth="yes"/>
      <point x="750" y="930"/>
      <point x="602" y="705"/>
    </contour>
  </outline>
</glyph>
<glyph name="ya" format="2">
  <advance width="904"/>
  <unicode hex="044F"/>
  <outline>
    <contour>
      <point x="214" y="0" type="line"/>
      <point x="10" y="0" type="line"/>
      <point x="336" y="454" type="line"/>
      <point x="521" y="437" type="line"/>
    </contour>
    <contour>
      <point x="708" y="0" type="line"/>
      <point x="708" y="384" type="line"/>
      <point x="464" y="384" type="line"/>
      <point x="446" y="396" type="line"/>
      <point x="253" y="396"/>
      <point x="44" y="569"/>
      <point x="44" y="716" type="qcurve" smooth="yes"/>
      <point x="44" y="869"/>
      <point x="253" y="1052"/>
      <point x="446" y="1052" type="qcurve" smooth="yes"/>
      <point x="894" y="1052" type="line"/>
      <point x="894" y="0" type="line"/>
    </contour>
    <contour>
      <point x="446" y="529" type="qcurve" smooth="yes"/>
      <point x="708" y="529" type="line"/>
      <point x="708" y="907" type="line"/>
      <point x="446" y="907" type="line" smooth="yes"/>
      <point x="327" y="907"/>
      <point x="230" y="799.4972677596"/>
      <point x="230" y="716" type="qcurve" smooth="yes"/>
      <point x="230" y="633.469273743"/>
      <point x="326" y="529"/>
    </contour>
  </outline>
</glyph>
<glyph name="Kaverticalstrokecyr" format="2">
  <advance width="1346"/>
  <unicode hex="049C"/>
  <guideline x="637" y="675" angle="90" identifier="5CJVZV5P4J"/>
  <outline>
    <contour>
      <point x="10" y="0" type="line"/>
      <point x="10" y="1456" type="line"/>
      <point x="202" y="1456" type="line"/>
      <point x="202" y="0" type="line"/>
    </contour>
    <contour>
      <point x="1107" y="0" type="line"/>
      <point x="529" y="740" type="line"/>
      <point x="689" y="823" type="line"/>
      <point x="1336" y="0" type="line"/>
    </contour>
    <contour>
      <point x="477" y="830" type="line"/>
      <point x="587" y="830" type="line"/>
      <point x="1082" y="1456" type="line"/>
      <point x="1292" y="1456" type="line"/>
      <point x="665" y="672" type="line"/>
      <point x="477" y="672" type="line"/>
    </contour>
    <contour>
      <point x="392" y="300" type="line"/>
      <point x="392" y="1156" type="line"/>
      <point x="562" y="1156" type="line"/>
      <point x="562" y="300" type="line"/>
    </contour>
  </outline>
</glyph>
<glyph name="kaverticalstrokecyr" format="2">
  <advance width="1107"/>
  <unicode hex="049D"/>
  <guideline x="547" y="651" angle="90" identifier="ATaXbxe4rK"/>
  <outline>
    <contour>
      <point x="491" y="852" type="line"/>
      <point x="491" y="200" type="line"/>
      <point x="326" y="200" type="line"/>
      <point x="326" y="852" type="line"/>
    </contour>
    <contour>
      <point x="196" y="1052" type="line"/>
      <point x="196" y="0" type="line"/>
      <point x="10" y="0" type="line"/>
      <point x="10" y="1052" type="line"/>
    </contour>
    <contour>
      <point x="871" y="0" type="line"/>
      <point x="491" y="465" type="line"/>
      <point x="606" y="591" type="line"/>
      <point x="1097" y="0" type="line"/>
    </contour>
    <contour>
      <point x="409" y="610" type="line"/>
      <point x="491" y="610" type="line"/>
      <point x="846" y="1052" type="line"/>
      <point x="1060" y="1052" type="line"/>
      <point x="578" y="465" type="line"/>
      <point x="409" y="465" type="line"/>
    </contour>
  </outline>
</glyph>
<glyph name="Kabashkircyr" format="2">
  <advance width="1511"/>
  <unicode hex="04A0"/>
  <outline>
    <contour>
      <point x="1265" y="0" type="line"/>
      <point x="637" y="740" type="line"/>
      <point x="797" y="823" type="line"/>
      <point x="1501" y="0" type="line"/>
    </contour>
    <contour>
      <point x="481" y="830" type="line"/>
      <point x="695" y="830" type="line"/>
      <point x="1240" y="1456" type="line"/>
      <point x="1457" y="1456" type="line"/>
      <point x="773" y="672" type="line"/>
      <point x="481" y="672" type="line"/>
    </contour>
    <contour>
      <point x="385" y="0" type="line"/>
      <point x="385" y="1298" type="line"/>
      <point x="10" y="1298" type="line"/>
      <point x="10" y="1456" type="line"/>
      <point x="577" y="1456" type="line"/>
      <point x="577" y="0" type="line"/>
    </contour>
  </outline>
</glyph>
<glyph name="endescender" format="2">
  <advance width="1017"/>
  <unicode hex="04A3"/>
  <outline>
    <contour>
      <point x="839" y="-270" type="line"/>
      <point x="839" y="0" type="line"/>
      <point x="666" y="0" type="line"/>
      <point x="666" y="465" type="line"/>
      <point x="196" y="465" type="line"/>
      <point x="196" y="0" type="line"/>
      <point x="10" y="0" type="line"/>
      <point x="10" y="1052" type="line"/>
      <point x="196" y="1052" type="line"/>
      <point x="196" y="610" type="line"/>
      <point x="666" y="610" type="line"/>
      <point x="666" y="1052" type="line"/>
      <point x="852" y="1052" type="line"/>
      <point x="852" y="145" type="line"/>
      <point x="1007" y="145" type="line"/>
      <point x="1007" y="-270" type="line"/>
    </contour>
  </outline>
</glyph>
<glyph name="tedescender-cy" format="2">
  <advance width="866"/>
  <unicode hex="04AD"/>
  <outline>
    <contour>
      <point x="513" y="-270" type="line"/>
      <point x="513" y="0" type="line"/>
      <point x="340" y="0" type="line"/>
      <point x="340" y="907" type="line"/>
      <point x="10" y="907" type="line"/>
      <point x="10" y="1052" type="line"/>
      <point x="856" y="1052" type="line"/>
      <point x="856" y="907" type="line"/>
      <point x="526" y="907" type="line"/>
      <point x="526" y="145" type="line"/>
      <point x="681" y="145" type="line"/>
      <point x="681" y="-270" type="line"/>
    </contour>
  </outline>
</glyph>
<glyph name="ustraight" format="2">
  <advance width="962"/>
  <unicode hex="04AF"/>
  <outline>
    <contour>
      <point x="388" y="-416" type="line"/>
      <point x="388" y="0" type="line"/>
      <point x="10" y="1052" type="line"/>
      <point x="190" y="1052" type="line"/>
      <point x="444" y="289" type="line" smooth="yes"/>
      <point x="457" y="249"/>
      <point x="477" y="179"/>
      <point x="481" y="159" type="qcurve"/>
      <point x="487" y="159" type="line"/>
      <point x="491" y="179"/>
      <point x="511" y="249"/>
      <point x="524" y="289" type="qcurve" smooth="yes"/>
      <point x="776" y="1052" type="line"/>
      <point x="952" y="1052" type="line"/>
      <point x="574" y="0" type="line"/>
      <point x="574" y="-416" type="line"/>
    </contour>
  </outline>
</glyph>
<glyph name="Hadescender" format="2">
  <advance width="1268"/>
  <unicode hex="04B2"/>
  <outline>
    <contour>
      <point x="966" y="158" type="line"/>
      <point x="1258" y="158" type="line"/>
      <point x="1258" y="-290" type="line"/>
      <point x="1086" y="-290" type="line"/>
      <point x="1086" y="0" type="line"/>
      <point x="966" y="0" type="line"/>
    </contour>
    <contour>
      <point x="10" y="0" type="line"/>
      <point x="534" y="806" type="line"/>
      <point x="548" y="806" type="line"/>
      <point x="945" y="1456" type="line"/>
      <point x="1157" y="1456" type="line"/>
      <point x="658" y="670" type="line"/>
      <point x="644" y="670" type="line"/>
      <point x="222" y="0" type="line"/>
    </contour>
    <contour>
      <point x="35" y="1456" type="line"/>
      <point x="251" y="1456" type="line"/>
      <point x="648" y="806" type="line"/>
      <point x="658" y="806" type="line"/>
      <point x="1182" y="0" type="line"/>
      <point x="966" y="0" type="line"/>
      <point x="544" y="670" type="line"/>
      <point x="534" y="670" type="line"/>
    </contour>
  </outline>
</glyph>
<glyph name="cheverticalstroke-cy" format="2">
  <advance width="862"/>
  <unicode hex="04B9"/>
  <outline>
    <contour>
      <point x="516" y="852" type="line"/>
      <point x="516" y="200" type="line"/>
      <point x="351" y="200" type="line"/>
      <point x="351" y="852" type="line"/>
    </contour>
    <contour>
      <point x="196" y="773" type="line" smooth="yes"/>
      <point x="196" y="642"/>
      <point x="295" y="542"/>
      <point x="418" y="542" type="qcurve" smooth="yes"/>
      <point x="507" y="542"/>
      <point x="651" y="568"/>
      <point x="739" y="590" type="qcurve"/>
      <point x="739" y="444" type="line"/>
      <point x="654" y="425"/>
      <point x="506" y="396"/>
      <point x="382" y="396" type="qcurve" smooth="yes"/>
      <point x="186" y="396"/>
      <point x="10" y="583"/>
      <point x="10" y="773" type="qcurve" smooth="yes"/>
      <point x="10" y="1052" type="line"/>
      <point x="196" y="1052" type="line"/>
    </contour>
    <contour>
      <point x="666" y="0" type="line"/>
      <point x="666" y="1052" type="line"/>
      <point x="852" y="1052" type="line"/>
      <point x="852" y="0" type="line"/>
    </contour>
  </outline>
</glyph>
<glyph name="Obarcyr" format="2">
  <advance width="1250"/>
  <unicode hex="04E8"/>
  <guideline x="212" y="786" angle="90" identifier="UtNSclIhRG"/>
  <guideline x="1248" y="730" angle="90" identifier="hwb5F7EShy"/>
  <outline>
    <contour>
      <point x="107" y="830" type="line"/>
      <point x="1143" y="830" type="line"/>
      <point x="1143" y="672" type="line"/>
      <point x="107" y="672" type="line"/>
    </contour>
    <contour>
      <point x="10" y="682" type="qcurve" smooth="yes"/>
      <point x="10" y="774" type="line" smooth="yes"/>
      <point x="10" y="1110"/>
      <point x="355" y="1486"/>
      <point x="625" y="1486" type="qcurve" smooth="yes"/>
      <point x="895" y="1486"/>
      <point x="1240" y="1110"/>
      <point x="1240" y="774" type="qcurve" smooth="yes"/>
      <point x="1240" y="682" type="line" smooth="yes"/>
      <point x="1240" y="346"/>
      <point x="895" y="-30"/>
      <point x="625" y="-30" type="qcurve" smooth="yes"/>
      <point x="355" y="-30"/>
      <point x="10" y="346"/>
    </contour>
    <contour>
      <point x="204" y="682" type="line" smooth="yes"/>
      <point x="204" y="426"/>
      <point x="435" y="134"/>
      <point x="625" y="134" type="qcurve" smooth="yes"/>
      <point x="815" y="134"/>
      <point x="1046" y="426"/>
      <point x="1046" y="682" type="qcurve" smooth="yes"/>
      <point x="1046" y="774" type="line" smooth="yes"/>
      <point x="1046" y="1030"/>
      <point x="815" y="1322"/>
      <point x="625" y="1322" type="qcurve" smooth="yes"/>
      <point x="435" y="1322"/>
      <point x="204" y="1030"/>
      <point x="204" y="774" type="qcurve" smooth="yes"/>
    </contour>
  </outline>
</glyph>
<glyph name="Germandbls" format="2">
  <advance width="1376"/>
  <unicode hex="1E9E"/>
  <outline>
    <contour>
      <point x="175" y="1066" type="line" smooth="yes"/>
      <point x="175" y="1267"/>
      <point x="396" y="1510"/>
      <point x="608" y="1510" type="qcurve" smooth="yes"/>
      <point x="834" y="1510"/>
      <point x="1016" y="1347"/>
      <point x="1016" y="1244" type="qcurve" smooth="yes"/>
      <point x="1016" y="1142"/>
      <point x="913" y="1010"/>
      <point x="853" y="966" type="qcurve" smooth="yes"/>
      <point x="802" y="929"/>
      <point x="747" y="881"/>
      <point x="747" y="861" type="qcurve" smooth="yes"/>
      <point x="747" y="841"/>
      <point x="813" y="805"/>
      <point x="1003" y="736" type="qcurve" smooth="yes"/>
      <point x="1196" y="666"/>
      <point x="1366" y="486"/>
      <point x="1366" y="336" type="qcurve" smooth="yes"/>
      <point x="1366" y="190"/>
      <point x="1123" y="-30"/>
      <point x="937" y="-30" type="qcurve" smooth="yes"/>
      <point x="697" y="-30"/>
      <point x="462" y="152"/>
      <point x="462" y="338" type="qcurve" smooth="yes"/>
      <point x="462" y="350" type="line"/>
      <point x="665" y="350" type="line"/>
      <point x="665" y="338" type="line" smooth="yes"/>
      <point x="665" y="238"/>
      <point x="790" y="135"/>
      <point x="926" y="135" type="qcurve" smooth="yes"/>
      <point x="1031" y="135"/>
      <point x="1169" y="241"/>
      <point x="1169" y="330" type="qcurve" smooth="yes"/>
      <point x="1169" y="427"/>
      <point x="1037" y="521"/>
      <point x="866" y="584" type="qcurve" smooth="yes"/>
      <point x="638" y="668"/>
      <point x="521" y="760"/>
      <point x="521" y="831" type="qcurve" smooth="yes"/>
      <point x="521" y="904"/>
      <point x="595" y="989"/>
      <point x="689" y="1056" type="qcurve" smooth="yes"/>
      <point x="759" y="1106"/>
      <point x="821" y="1172"/>
      <point x="821" y="1229" type="qcurve" smooth="yes"/>
      <point x="821" y="1284"/>
      <point x="719" y="1348"/>
      <point x="614" y="1348" type="qcurve" smooth="yes"/>
      <point x="493" y="1348"/>
      <point x="367" y="1198"/>
      <point x="367" y="1036" type="qcurve" smooth="yes"/>
      <point x="367" y="355" type="line" smooth="yes"/>
      <point x="367" y="184"/>
      <point x="200" y="-16"/>
      <point x="65" y="-16" type="qcurve" smooth="yes"/>
      <point x="52" y="-16"/>
      <point x="25" y="-14"/>
      <point x="12" y="-12" type="qcurve"/>
      <point x="10" y="172" type="line"/>
      <point x="19" y="169"/>
      <point x="38" y="167"/>
      <point x="47" y="167" type="qcurve" smooth="yes"/>
      <point x="107" y="167"/>
      <point x="175" y="264"/>
      <point x="175" y="355" type="qcurve" smooth="yes"/>
    </contour>
  </outline>
</glyph>
<glyph name="horizontalbar" format="2">
  <advance width="625"/>
  <unicode hex="2015"/>
  <outline>
    <contour>
      <point x="10" y="626" type="line"/>
      <point x="10" y="792" type="line"/>
      <point x="615" y="792" type="line"/>
      <point x="615" y="626" type="line"/>
    </contour>
  </outline>
</glyph>
<glyph name="quoteright" format="2">
  <advance width="204"/>
  <unicode hex="2019"/>
  <outline>
    <contour>
      <point x="194" y="1458" type="line"/>
      <point x="194" y="1330" type="line" smooth="yes"/>
      <point x="194" y="1240"/>
      <point x="103" y="1036"/>
      <point x="21" y="968" type="qcurve"/>
      <point x="-85" y="1041" type="line"/>
      <point x="-38" y="1107"/>
      <point x="10" y="1246"/>
      <point x="10" y="1327" type="qcurve" smooth="yes"/>
      <point x="10" y="1458" type="line"/>
    </contour>
  </outline>
</glyph>
<glyph name="quotesinglbase" format="2">
  <advance width="204"/>
  <unicode hex="201A"/>
  <outline>
    <contour>
      <point x="194" y="220" type="line"/>
      <point x="194" y="92" type="line" smooth="yes"/>
      <point x="194" y="2"/>
      <point x="103" y="-202"/>
      <point x="21" y="-270" type="qcurve"/>
      <point x="-85" y="-197" type="line"/>
      <point x="-38" y="-131"/>
      <point x="10" y="8"/>
      <point x="10" y="89" type="qcurve" smooth="yes"/>
      <point x="10" y="220" type="line"/>
    </contour>
  </outline>
</glyph>
<glyph name="quotedblright" format="2">
  <advance width="624"/>
  <unicode hex="201D"/>
  <outline>
    <contour>
      <point x="194" y="1458" type="line"/>
      <point x="194" y="1330" type="line" smooth="yes"/>
      <point x="194" y="1240"/>
      <point x="103" y="1036"/>
      <point x="21" y="968" type="qcurve"/>
      <point x="-85" y="1041" type="line"/>
      <point x="-38" y="1107"/>
      <point x="10" y="1246"/>
      <point x="10" y="1327" type="qcurve" smooth="yes"/>
      <point x="10" y="1458" type="line"/>
    </contour>
    <contour>
      <point x="614" y="1458" type="line"/>
      <point x="614" y="1330" type="line" smooth="yes"/>
      <point x="614" y="1240"/>
      <point x="523" y="1036"/>
      <point x="441" y="968" type="qcurve"/>
      <point x="335" y="1041" type="line"/>
      <point x="382" y="1107"/>
      <point x="430" y="1246"/>
      <point x="430" y="1327" type="qcurve" smooth="yes"/>
      <point x="430" y="1458" type="line"/>
    </contour>
  </outline>
</glyph>
<glyph name="commercialMinusSign" format="2">
  <advance width="789"/>
  <unicode hex="2052"/>
  <outline>
    <contour>
      <point x="11" y="-2" type="line"/>
      <point x="596" y="1501" type="line"/>
      <point x="764" y="1458" type="line"/>
      <point x="179" y="-45" type="line"/>
    </contour>
    <contour>
      <point x="455" y="148" type="qcurve" smooth="yes"/>
      <point x="455" y="213"/>
      <point x="546" y="310"/>
      <point x="617" y="310" type="qcurve" smooth="yes"/>
      <point x="688" y="310"/>
      <point x="779" y="213"/>
      <point x="779" y="148" type="qcurve" smooth="yes"/>
      <point x="779" y="84"/>
      <point x="688" y="-13"/>
      <point x="617" y="-13" type="qcurve" smooth="yes"/>
      <point x="546" y="-13"/>
      <point x="455" y="84"/>
    </contour>
    <contour>
      <point x="10" y="1304" type="qcurve" smooth="yes"/>
      <point x="10" y="1369"/>
      <point x="101" y="1466"/>
      <point x="172" y="1466" type="qcurve" smooth="yes"/>
      <point x="243" y="1466"/>
      <point x="334" y="1369"/>
      <point x="334" y="1304" type="qcurve" smooth="yes"/>
      <point x="334" y="1240"/>
      <point x="243" y="1143"/>
      <point x="172" y="1143" type="qcurve" smooth="yes"/>
      <point x="101" y="1143"/>
      <point x="10" y="1240"/>
    </contour>
  </outline>
</glyph>
<glyph name="peseta" format="2">
  <advance width="1456"/>
  <unicode hex="20A7"/>
  <outline>
    <contour>
      <point x="388" y="565" type="qcurve"/>
      <point x="154" y="565" type="line"/>
      <point x="154" y="717" type="line"/>
      <point x="388" y="717" type="line"/>
      <point x="561.1343283582" y="717"/>
      <point x="665" y="898.552238806"/>
      <point x="665" y="1009" type="qcurve"/>
      <point x="665" y="1120.9402985075"/>
      <point x="561.1343283582" y="1304"/>
      <point x="388" y="1304" type="qcurve"/>
      <point x="195" y="1304" type="line"/>
      <point x="195" y="0" type="line"/>
      <point x="10" y="0" type="line"/>
      <point x="10" y="1456" type="line"/>
      <point x="388" y="1456" type="line"/>
      <point x="634.2686567164" y="1456"/>
      <point x="851" y="1202.0447761194"/>
      <point x="851" y="1011" type="qcurve"/>
      <point x="851" y="819.2089552239"/>
      <point x="634.2686567164" y="565"/>
    </contour>
    <contour>
      <point x="1397" y="1026" type="line"/>
      <point x="1397" y="884" type="line"/>
      <point x="793" y="884" type="line"/>
      <point x="793" y="1026" type="line"/>
    </contour>
    <contour>
      <point x="990" y="1345" type="line"/>
      <point x="1175" y="1345" type="line"/>
      <point x="1175" y="268" type="line"/>
      <point x="1175" y="185.1641791045"/>
      <point x="1247.7313432836" y="139"/>
      <point x="1294" y="139" type="qcurve" smooth="yes"/>
      <point x="1317.1343283582" y="139"/>
      <point x="1387" y="141"/>
      <point x="1446" y="163" type="qcurve"/>
      <point x="1446" y="12" type="line"/>
      <point x="1397" y="-6"/>
      <point x="1288.5074626866" y="-20"/>
      <point x="1240" y="-20" type="qcurve" smooth="yes"/>
      <point x="1137.7611940299" y="-20"/>
      <point x="990" y="107.0597014925"/>
      <point x="990" y="269" type="qcurve"/>
    </contour>
  </outline>
</glyph>
<glyph name="won" format="2">
  <advance width="1720"/>
  <unicode hex="20A9"/>
  <outline>
    <contour>
      <point x="10" y="880" type="line"/>
      <point x="10" y="1017" type="line"/>
      <point x="275" y="1017" type="line"/>
      <point x="275" y="1007" type="line"/>
      <point x="1457" y="1007" type="line"/>
      <point x="1457" y="1017" type="line"/>
      <point x="1710" y="1019" type="line"/>
      <point x="1710" y="882" type="line"/>
      <point x="1457" y="880" type="line"/>
      <point x="1457" y="885" type="line"/>
      <point x="275" y="885" type="line"/>
      <point x="275" y="880" type="line"/>
    </contour>
    <contour>
      <point x="41" y="520" type="line"/>
      <point x="41" y="657" type="line"/>
      <point x="366" y="657" type="line"/>
      <point x="366" y="652" type="line"/>
      <point x="1378" y="652" type="line"/>
      <point x="1378" y="657" type="line"/>
      <point x="1671" y="659" type="line"/>
      <point x="1671" y="522" type="line"/>
      <point x="1378" y="520" type="line"/>
      <point x="1378" y="530" type="line"/>
      <point x="366" y="530" type="line"/>
      <point x="366" y="520" type="line"/>
    </contour>
    <contour>
      <point x="435" y="-10" type="line"/>
      <point x="77" y="1456" type="line"/>
      <point x="251" y="1456" type="line"/>
      <point x="500" y="378" type="line"/>
      <point x="518" y="250" type="line"/>
      <point x="524" y="250" type="line"/>
      <point x="542" y="378" type="line" smooth="yes"/>
      <point x="760" y="1456" type="line"/>
      <point x="958" y="1456" type="line"/>
      <point x="1206" y="378" type="line"/>
      <point x="1224" y="250" type="line"/>
      <point x="1230" y="250" type="line"/>
      <point x="1248" y="378" type="line" smooth="yes"/>
      <point x="1467" y="1456" type="line"/>
      <point x="1629" y="1456" type="line"/>
      <point x="1311" y="-10" type="line"/>
      <point x="1133" y="-10" type="line"/>
      <point x="887" y="1100" type="line"/>
      <point x="866" y="1228" type="line"/>
      <point x="860" y="1228" type="line"/>
      <point x="839" y="1100" type="line" smooth="yes"/>
      <point x="613" y="-10" type="line"/>
    </contour>
  </outline>
</glyph>
<glyph name="rupeeIndian" format="2">
  <advance width="1010"/>
  <unicode hex="20B9"/>
  <outline>
    <contour>
      <point x="10" y="934" type="line"/>
      <point x="10" y="1089" type="line"/>
      <point x="981" y="1089" type="line"/>
      <point x="981" y="934" type="line"/>
    </contour>
    <contour>
      <point x="797" y="0" type="line"/>
      <point x="651" y="267" type="line" smooth="yes"/>
      <point x="557" y="439"/>
      <point x="313" y="566"/>
      <point x="123" y="574" type="qcurve" smooth="yes"/>
      <point x="10" y="579" type="line"/>
      <point x="10" y="732" type="line"/>
      <point x="298" y="732" type="line" smooth="yes"/>
      <point x="489" y="732"/>
      <point x="644" y="885"/>
      <point x="644" y="1019" type="qcurve" smooth="yes"/>
      <point x="644" y="1145"/>
      <point x="483" y="1299"/>
      <point x="312" y="1299" type="qcurve" smooth="yes"/>
      <point x="10" y="1299" type="line"/>
      <point x="10" y="1456" type="line"/>
      <point x="990" y="1456" type="line"/>
      <point x="990" y="1300" type="line"/>
      <point x="755" y="1300" type="line"/>
      <point x="678" y="1308" type="line"/>
      <point x="680" y="1300" type="line"/>
      <point x="737" y="1272"/>
      <point x="829" y="1112"/>
      <point x="829" y="1019" type="qcurve" smooth="yes"/>
      <point x="829" y="831"/>
      <point x="652" y="663"/>
      <point x="466" y="642" type="qcurve"/>
      <point x="560" y="619"/>
      <point x="753" y="461"/>
      <point x="830" y="317" type="qcurve" smooth="yes"/>
      <point x="1000" y="0" type="line"/>
    </contour>
  </outline>
</glyph>
<glyph name="manat" format="2">
  <advance width="914"/>
  <unicode hex="20BC"/>
  <outline>
    <contour>
      <point x="904" y="916" type="qcurve" smooth="yes"/>
      <point x="904" y="0" type="line"/>
      <point x="722" y="0" type="line"/>
      <point x="722" y="916" type="line" smooth="yes"/>
      <point x="722" y="1078"/>
      <point x="585" y="1252"/>
      <point x="457" y="1252" type="qcurve" smooth="yes"/>
      <point x="331" y="1252"/>
      <point x="194" y="1078"/>
      <point x="192" y="916" type="qcurve" smooth="yes"/>
      <point x="192" y="0" type="line"/>
      <point x="10" y="0" type="line"/>
      <point x="10" y="916" type="line" smooth="yes"/>
      <point x="10" y="1157"/>
      <point x="242" y="1416"/>
      <point x="457" y="1416" type="qcurve" smooth="yes"/>
      <point x="669" y="1416"/>
      <point x="901" y="1157"/>
    </contour>
    <contour>
      <point x="537" y="0" type="line"/>
      <point x="377" y="0" type="line"/>
      <point x="377" y="1582" type="line"/>
      <point x="537" y="1582" type="line"/>
    </contour>
  </outline>
</glyph>
<glyph name="trademark" format="2">
  <advance width="1712"/>
  <unicode hex="2122"/>
  <outline>
    <contour>
      <point x="10" y="1288" type="line"/>
      <point x="10" y="1446" type="line"/>
      <point x="718" y="1446" type="line"/>
      <point x="718" y="1288" type="line"/>
      <point x="450" y="1288" type="line"/>
      <point x="450" y="690" type="line"/>
      <point x="278" y="690" type="line"/>
      <point x="278" y="1288" type="line"/>
    </contour>
    <contour>
      <point x="836" y="690" type="line"/>
      <point x="836" y="1446" type="line"/>
      <point x="1007" y="1446" type="line"/>
      <point x="1263" y="866" type="line"/>
      <point x="1271" y="866" type="line"/>
      <point x="1531" y="1446" type="line"/>
      <point x="1702" y="1446" type="line"/>
      <point x="1702" y="690" type="line"/>
      <point x="1553" y="690" type="line"/>
      <point x="1553" y="1165" type="line"/>
      <point x="1541" y="1165" type="line"/>
      <point x="1335" y="690" type="line"/>
      <point x="1199" y="690" type="line"/>
      <point x="1003" y="1165" type="line"/>
      <point x="991" y="1165" type="line"/>
      <point x="991" y="690" type="line"/>
    </contour>
  </outline>
</glyph>
<glyph name="arrowleft" format="2">
  <advance width="1403"/>
  <unicode hex="2190"/>
  <outline>
    <contour>
      <point x="644" y="249" type="line"/>
      <point x="10" y="666" type="line"/>
      <point x="10" y="716" type="line"/>
      <point x="644" y="1135" type="line"/>
      <point x="679" y="1087" type="line"/>
      <point x="469" y="777" type="line"/>
      <point x="1393" y="777" type="line"/>
      <point x="1393" y="605" type="line"/>
      <point x="470" y="605" type="line"/>
      <point x="678" y="295" type="line"/>
    </contour>
  </outline>
</glyph>
<glyph name="arrowright" format="2">
  <advance width="1403"/>
  <unicode hex="2192"/>
  <guideline x="1094" y="773" angle="90" identifier="xShtOjvBze"/>
  <outline>
    <contour>
      <point x="10" y="607" type="line"/>
      <point x="10" y="779" type="line"/>
      <point x="934" y="779" type="line"/>
      <point x="725" y="1089" type="line"/>
      <point x="759" y="1135" type="line"/>
      <point x="1393" y="718" type="line"/>
      <point x="1393" y="668" type="line"/>
      <point x="759" y="249" type="line"/>
      <point x="724" y="297" type="line"/>
      <point x="934" y="607" type="line"/>
    </contour>
  </outline>
</glyph>
<glyph name="lessequal" format="2">
  <advance width="930"/>
  <unicode hex="2264"/>
  <outline>
    <contour>
      <point x="871" y="253" type="line"/>
      <point x="53" y="602" type="line"/>
      <point x="53" y="746" type="line"/>
      <point x="871" y="1095" type="line"/>
      <point x="871" y="902" type="line"/>
      <point x="284" y="679" type="line"/>
      <point x="871" y="456" type="line"/>
    </contour>
    <contour>
      <point x="10" y="1" type="line"/>
      <point x="10" y="170" type="line"/>
      <point x="920" y="170" type="line"/>
      <point x="920" y="1" type="line"/>
    </contour>
  </outline>
</glyph>
<glyph name="greaterequal" format="2">
  <advance width="930"/>
  <unicode hex="2265"/>
  <outline>
    <contour>
      <point x="59" y="253" type="line"/>
      <point x="59" y="456" type="line"/>
      <point x="646" y="679" type="line"/>
      <point x="59" y="902" type="line"/>
      <point x="59" y="1095" type="line"/>
      <point x="877" y="746" type="line"/>
      <point x="877" y="602" type="line"/>
    </contour>
    <contour>
      <point x="920" y="1" type="line"/>
      <point x="10" y="1" type="line"/>
      <point x="10" y="170" type="line"/>
      <point x="920" y="170" type="line"/>
    </contour>
  </outline>
</glyph>
<glyph name="rightanglebracket" format="2">
  <advance width="735"/>
  <unicode hex="27E9"/>
  <outline>
    <contour>
      <point x="10" y="-218" type="line"/>
      <point x="534" y="591" type="line"/>
      <point x="11" y="1414" type="line"/>
      <point x="123" y="1499" type="line"/>
      <point x="725" y="659" type="line"/>
      <point x="725" y="530" type="line"/>
      <point x="123" y="-304" type="line"/>
    </contour>
  </outline>
</glyph>
<glyph name="replacementchar" format="2">
  <advance width="1935"/>
  <unicode hex="FFFD"/>
  <outline>
    <contour>
      <point x="10" y="643" type="line"/>
      <point x="966" y="-332" type="line"/>
      <point x="1925" y="643" type="line"/>
      <point x="966" y="1618" type="line"/>
    </contour>
    <contour>
      <point x="847" y="402" type="line"/>
      <point x="847.7462686567" y="496.776119403"/>
      <point x="914.8507462687" y="585.7462686567"/>
      <point x="985" y="635" type="qcurve"/>
      <point x="1024.552238806" y="661.1194029851"/>
      <point x="1078" y="738.5074626866"/>
      <point x="1078" y="790" type="qcurve" smooth="yes"/>
      <point x="1078" y="841.4925373134"/>
      <point x="1020.9701492536999" y="906"/>
      <point x="965" y="906" type="qcurve" smooth="yes"/>
      <point x="926.1940298507" y="906"/>
      <point x="863.4925373134" y="857.4776119403"/>
      <point x="862" y="803" type="qcurve"/>
      <point x="659" y="803" type="line"/>
      <point x="661.2388059701" y="943.2985074627"/>
      <point x="838.1343283582" y="1069"/>
      <point x="965" y="1069" type="qcurve" smooth="yes"/>
      <point x="1112.7611940299" y="1069"/>
      <point x="1281" y="917.6119402985"/>
      <point x="1281" y="790" type="qcurve" smooth="yes"/>
      <point x="1281" y="708.6567164179"/>
      <point x="1182.1641791045" y="578.5671641791"/>
      <point x="1115" y="542" type="qcurve" smooth="yes"/>
      <point x="1073.9552238806" y="515.1343283582"/>
      <point x="1049" y="452.7462686567"/>
      <point x="1049" y="402" type="qcurve"/>
    </contour>
    <contour>
      <point x="1049" y="141" type="line"/>
      <point x="847" y="141" type="line"/>
      <point x="847" y="311" type="line"/>
      <point x="1049" y="311" type="line"/>
    </contour>
    <contour>
      <point x="974" y="-555" type="line"/>
      <point x="978" y="-555" type="line"/>
      <point x="978" y="-551" type="line"/>
      <point x="974" y="-551" type="line"/>
    </contour>
    <contour>
      <point x="972" y="2159" type="line"/>
      <point x="976" y="2159" type="line"/>
      <point x="976" y="2163" type="line"/>
      <point x="972" y="2163" type="line"/>
    </contour>
  </outline>
</glyph>
<glyph name="acutecomb.case" format="2">
  <advance width="395"/>
  <anchor x="126" y="1456" name="_top"/>
  <anchor x="126" y="1998" name="top"/>
  <outline>
    <contour>
      <point x="10" y="1659" type="line"/>
      <point x="223" y="1998" type="line"/>
      <point x="385" y="1899" type="line"/>
      <point x="137" y="1600" type="line"/>
    </contour>
  </outline>
</glyph>
<glyph name="breve.cyr" format="2">
  <advance width="688"/>
  <anchor x="325" y="1052" name="_top"/>
  <anchor x="325" y="1536" name="top"/>
  <outline>
    <contour>
      <point x="344" y="1366" type="qcurve" smooth="yes"/>
      <point x="413" y="1366"/>
      <point x="507" y="1444"/>
      <point x="535" y="1530" type="qcurve"/>
      <point x="678" y="1447" type="line"/>
      <point x="632" y="1328"/>
      <point x="455" y="1218"/>
      <point x="344" y="1218" type="qcurve" smooth="yes"/>
      <point x="232" y="1218"/>
      <point x="59" y="1325"/>
      <point x="10" y="1447" type="qcurve"/>
      <point x="154" y="1534" type="line"/>
      <point x="183" y="1439"/>
      <point x="275" y="1366"/>
    </contour>
  </outline>
</glyph>
<glyph name="breveacutecomb.case" format="2">
  <advance width="749"/>
  <anchor x="374" y="1456" name="_top"/>
  <outline>
    <contour>
      <point x="636" y="1900" type="qcurve"/>
      <point x="739" y="1834" type="line"/>
      <point x="702" y="1747"/>
      <point x="511" y="1600"/>
      <point x="374" y="1600" type="qcurve" smooth="yes"/>
      <point x="252" y="1600"/>
      <point x="56" y="1735"/>
      <point x="10" y="1835" type="qcurve"/>
      <point x="120" y="1900" type="line"/>
      <point x="159" y="1846"/>
      <point x="289" y="1759"/>
      <point x="374" y="1759" type="qcurve" smooth="yes"/>
      <point x="466" y="1759"/>
      <point x="597" y="1842"/>
    </contour>
    <contour>
      <point x="265" y="2060" type="line"/>
      <point x="568" y="2286" type="line"/>
      <point x="684" y="2122" type="line"/>
      <point x="347" y="1950" type="line"/>
    </contour>
  </outline>
</glyph>
<glyph name="brevecomb.case" format="2">
  <advance width="787"/>
  <anchor x="393" y="1456" name="_top"/>
  <anchor x="393" y="1936" name="top"/>
  <outline>
    <contour>
      <point x="684" y="1936" type="qcurve"/>
      <point x="777" y="1866" type="line"/>
      <point x="738" y="1767"/>
      <point x="537" y="1600"/>
      <point x="393" y="1600" type="qcurve" smooth="yes"/>
      <point x="265" y="1600"/>
      <point x="58" y="1753"/>
      <point x="10" y="1867" type="qcurve"/>
      <point x="110" y="1936" type="line"/>
      <point x="153" y="1873"/>
      <point x="298" y="1769"/>
      <point x="393" y="1769" type="qcurve" smooth="yes"/>
      <point x="495" y="1769"/>
      <point x="641" y="1868"/>
    </contour>
  </outline>
</glyph>
<glyph name="brevecombstack.case" format="2">
  <advance width="749"/>
  <anchor x="374" y="1536" name="_top"/>
  <anchor x="374" y="1910" name="top"/>
  <outline>
    <contour>
      <point x="636" y="1910" type="qcurve"/>
      <point x="739" y="1844" type="line"/>
      <point x="702" y="1757"/>
      <point x="511" y="1610"/>
      <point x="374" y="1610" type="qcurve" smooth="yes"/>
      <point x="252" y="1610"/>
      <point x="56" y="1745"/>
      <point x="10" y="1845" type="qcurve"/>
      <point x="120" y="1910" type="line"/>
      <point x="159" y="1856"/>
      <point x="289" y="1769"/>
      <point x="374" y="1769" type="qcurve" smooth="yes"/>
      <point x="466" y="1769"/>
      <point x="597" y="1852"/>
    </contour>
  </outline>
</glyph>
<glyph name="circumflexacutecomb.case" format="2">
  <advance width="1063"/>
  <anchor x="344" y="1456" name="_top"/>
  <outline>
    <contour>
      <point x="411" y="1892" type="line"/>
      <point x="676" y="1602" type="line"/>
      <point x="512" y="1602" type="line"/>
      <point x="343" y="1739" type="line"/>
      <point x="178" y="1602" type="line"/>
      <point x="10" y="1602" type="line"/>
      <point x="267" y="1892" type="line"/>
    </contour>
    <contour>
      <point x="634" y="1902" type="line"/>
      <point x="937" y="2128" type="line"/>
      <point x="1053" y="1964" type="line"/>
      <point x="716" y="1792" type="line"/>
    </contour>
  </outline>
</glyph>
<glyph name="circumflexacutecomb" format="2">
  <advance width="999"/>
  <anchor x="311" y="1052" name="_top"/>
  <outline>
    <contour>
      <point x="367" y="1533" type="line"/>
      <point x="615" y="1220" type="line"/>
      <point x="461" y="1220" type="line"/>
      <point x="311" y="1379" type="line"/>
      <point x="162" y="1220" type="line"/>
      <point x="10" y="1220" type="line"/>
      <point x="255" y="1533" type="line"/>
    </contour>
    <contour>
      <point x="595" y="1519" type="line"/>
      <point x="836" y="1813" type="line"/>
      <point x="989" y="1708" type="line"/>
      <point x="690" y="1433" type="line"/>
    </contour>
  </outline>
</glyph>
<glyph name="circumflexcomb.case" format="2">
  <advance width="686"/>
  <anchor x="350" y="1456" name="_top"/>
  <anchor x="350" y="1975" name="top"/>
  <outline>
    <contour>
      <point x="411" y="1975" type="line"/>
      <point x="676" y="1635" type="line"/>
      <point x="509" y="1633" type="line"/>
      <point x="343" y="1817" type="line"/>
      <point x="183" y="1635" type="line"/>
      <point x="10" y="1635" type="line"/>
      <point x="267" y="1975" type="line"/>
    </contour>
  </outline>
</glyph>
<glyph name="circumflexcombstack.case" format="2">
  <advance width="686"/>
  <anchor x="350" y="1536" name="_top"/>
  <anchor x="350" y="1875" name="top"/>
  <outline>
    <contour>
      <point x="411" y="1875" type="line"/>
      <point x="676" y="1585" type="line"/>
      <point x="514" y="1583" type="line"/>
      <point x="343" y="1722" type="line"/>
      <point x="178" y="1585" type="line"/>
      <point x="10" y="1585" type="line"/>
      <point x="267" y="1875" type="line"/>
    </contour>
  </outline>
</glyph>
<glyph name="circumflexhookabovecomb" format="2">
  <advance width="980"/>
  <anchor x="312" y="1052" name="_top"/>
  <outline>
    <contour>
      <point x="367" y="1533" type="line"/>
      <point x="615" y="1220" type="line"/>
      <point x="461" y="1220" type="line"/>
      <point x="311" y="1379" type="line"/>
      <point x="162" y="1220" type="line"/>
      <point x="10" y="1220" type="line"/>
      <point x="255" y="1533" type="line"/>
    </contour>
    <contour>
      <point x="576" y="1433" type="line"/>
      <point x="576" y="1472" type="line" smooth="yes"/>
      <point x="576" y="1524"/>
      <point x="635" y="1594"/>
      <point x="711" y="1605" type="qcurve" smooth="yes"/>
      <point x="767" y="1613"/>
      <point x="807" y="1645"/>
      <point x="807" y="1686" type="qcurve" smooth="yes"/>
      <point x="807" y="1725"/>
      <point x="748" y="1761"/>
      <point x="694" y="1761" type="qcurve" smooth="yes"/>
      <point x="630" y="1761"/>
      <point x="518" y="1728"/>
      <point x="508" y="1720" type="qcurve"/>
      <point x="454" y="1845" type="line"/>
      <point x="489" y="1864"/>
      <point x="643" y="1905"/>
      <point x="725" y="1905" type="qcurve" smooth="yes"/>
      <point x="845" y="1905"/>
      <point x="970" y="1791"/>
      <point x="970" y="1695" type="qcurve" smooth="yes"/>
      <point x="970" y="1594"/>
      <point x="842" y="1475"/>
      <point x="699" y="1464" type="qcurve"/>
      <point x="699" y="1433" type="line"/>
    </contour>
  </outline>
</glyph>
<glyph name="diagonalbarL" format="2">
  <advance width="765"/>
  <outline>
    <contour>
      <point x="90" y="446" type="line"/>
      <point x="10" y="584" type="line"/>
      <point x="674" y="995" type="line"/>
      <point x="755" y="860" type="line"/>
    </contour>
  </outline>
</glyph>
<glyph name="diagonalbaro" format="2">
  <advance width="697"/>
  <outline>
    <contour>
      <point x="10" y="-118" type="line"/>
      <point x="94" y="89" type="line"/>
      <point x="112" y="84" type="line"/>
      <point x="313" y="584" type="line"/>
      <point x="412" y="514" type="line"/>
      <point x="229" y="55" type="line"/>
      <point x="249" y="51" type="line"/>
      <point x="175" y="-123" type="line"/>
    </contour>
    <contour>
      <point x="516" y="1144" type="line"/>
      <point x="687" y="1141" type="line"/>
      <point x="609" y="948" type="line"/>
      <point x="588" y="953" type="line"/>
      <point x="412" y="514" type="line"/>
      <point x="313" y="584" type="line"/>
      <point x="472" y="981" type="line"/>
      <point x="452" y="987" type="line"/>
    </contour>
  </outline>
</glyph>
<glyph name="dieresiscomb.case" format="2">
  <advance width="712"/>
  <anchor x="356" y="1456" name="_top"/>
  <anchor x="356" y="1901" name="top"/>
  <outline>
    <contour>
      <point x="10" y="1787" type="qcurve" smooth="yes"/>
      <point x="10" y="1842"/>
      <point x="70" y="1901"/>
      <point x="126" y="1901" type="qcurve" smooth="yes"/>
      <point x="179" y="1901"/>
      <point x="242" y="1838"/>
      <point x="242" y="1787" type="qcurve" smooth="yes"/>
      <point x="242" y="1733"/>
      <point x="183" y="1674"/>
      <point x="126" y="1674" type="qcurve" smooth="yes"/>
      <point x="73" y="1674"/>
      <point x="10" y="1736"/>
    </contour>
    <contour>
      <point x="470" y="1787" type="qcurve" smooth="yes"/>
      <point x="470" y="1842"/>
      <point x="530" y="1901"/>
      <point x="586" y="1901" type="qcurve" smooth="yes"/>
      <point x="639" y="1901"/>
      <point x="702" y="1838"/>
      <point x="702" y="1787" type="qcurve" smooth="yes"/>
      <point x="702" y="1733"/>
      <point x="643" y="1674"/>
      <point x="586" y="1674" type="qcurve" smooth="yes"/>
      <point x="533" y="1674"/>
      <point x="470" y="1736"/>
    </contour>
  </outline>
</glyph>
<glyph name="horizontalbarH" format="2">
  <advance width="1466"/>
  <outline>
    <contour>
      <point x="1446" y="1027" type="line"/>
      <point x="1224" y="1025" type="line"/>
      <point x="1224" y="1162" type="line"/>
      <point x="1456" y="1164" type="line"/>
    </contour>
    <contour>
      <point x="19" y="1025" type="line"/>
      <point x="10" y="1162" type="line"/>
      <point x="249" y="1162" type="line"/>
      <point x="249" y="1025" type="line"/>
    </contour>
    <contour>
      <point x="249" y="1035" type="line"/>
      <point x="249" y="1152" type="line"/>
      <point x="1224" y="1152" type="line"/>
      <point x="1224" y="1035" type="line"/>
    </contour>
  </outline>
</glyph>
<glyph name="horizontalbarlc" format="2">
  <advance width="627"/>
  <outline>
    <contour>
      <point x="292" y="656" type="line"/>
      <point x="10" y="656" type="line"/>
      <point x="21" y="802" type="line"/>
      <point x="332" y="802" type="line"/>
      <point x="617" y="802" type="line"/>
      <point x="617" y="656" type="line"/>
    </contour>
  </outline>
</glyph>
<glyph name="horncomb.case" format="2">
  <advance width="400"/>
  <anchor x="56" y="1456" name="_topright"/>
  <anchor x="56" y="1694" name="topright"/>
  <outline>
    <contour>
      <point x="10" y="1456" type="line"/>
      <point x="94" y="1456" type="line" smooth="yes"/>
      <point x="142" y="1456"/>
      <point x="214" y="1490"/>
      <point x="214" y="1542" type="qcurve" smooth="yes"/>
      <point x="214" y="1588"/>
      <point x="201" y="1658"/>
      <point x="191" y="1694" type="qcurve"/>
      <point x="337" y="1694" type="line"/>
      <point x="357" y="1661"/>
      <point x="390" y="1561"/>
      <point x="390" y="1497" type="qcurve" smooth="yes"/>
      <point x="390" y="1409"/>
      <point x="250" y="1324"/>
      <point x="154" y="1324" type="qcurve" smooth="yes"/>
      <point x="108" y="1324"/>
      <point x="36" y="1336"/>
      <point x="10" y="1345" type="qcurve"/>
    </contour>
  </outline>
</glyph>
<glyph name="ogonekcomb.case" format="2">
  <advance width="602"/>
  <anchor x="301" y="0" name="_ogonek"/>
  <anchor x="301" y="-500" name="bottom"/>
  <outline>
    <contour>
      <point x="10" y="-306" type="qcurve" smooth="yes"/>
      <point x="10" y="-217"/>
      <point x="138" y="-41"/>
      <point x="257" y="51" type="qcurve"/>
      <point x="352" y="0" type="line"/>
      <point x="247" y="-105"/>
      <point x="182" y="-199"/>
      <point x="182" y="-244" type="qcurve" smooth="yes"/>
      <point x="182" y="-292"/>
      <point x="242" y="-347"/>
      <point x="294" y="-347" type="qcurve" smooth="yes"/>
      <point x="341" y="-347"/>
      <point x="473" y="-301"/>
      <point x="535" y="-254" type="qcurve"/>
      <point x="592" y="-357" type="line"/>
      <point x="547" y="-418"/>
      <point x="371" y="-497"/>
      <point x="267" y="-497" type="qcurve" smooth="yes"/>
      <point x="162" y="-497"/>
      <point x="10" y="-384"/>
    </contour>
  </outline>
</glyph>
<glyph name="seven.prop" format="2">
  <advance width="894"/>
  <outline>
    <contour>
      <point x="226" y="0" type="line"/>
      <point x="686" y="1300" type="line"/>
      <point x="10" y="1300" type="line"/>
      <point x="10" y="1456" type="line"/>
      <point x="884" y="1456" type="line"/>
      <point x="884" y="1352" type="line"/>
      <point x="422" y="0" type="line"/>
    </contour>
  </outline>
</glyph>
<glyph name="shcha.bgr" format="2">
  <advance width="1653"/>
  <outline>
    <contour>
      <point x="1475" y="-270" type="line"/>
      <point x="1475" y="0" type="line"/>
      <point x="1320" y="0" type="line"/>
      <point x="1312" y="135" type="line"/>
      <point x="1306" y="135" type="line"/>
      <point x="1250" y="64"/>
      <point x="1091" y="-20"/>
      <point x="994" y="-20" type="qcurve" smooth="yes"/>
      <point x="888" y="-20"/>
      <point x="734" y="64"/>
      <point x="694" y="158" type="qcurve"/>
      <point x="688" y="158" type="line"/>
      <point x="622" y="64"/>
      <point x="462" y="-20"/>
      <point x="358" y="-20" type="qcurve" smooth="yes"/>
      <point x="194" y="-20"/>
      <point x="10" y="161"/>
      <point x="10" y="373" type="qcurve" smooth="yes"/>
      <point x="10" y="1052" type="line"/>
      <point x="196" y="1052" type="line"/>
      <point x="196" y="371" type="line" smooth="yes"/>
      <point x="196" y="245"/>
      <point x="304" y="136"/>
      <point x="403" y="136" type="qcurve" smooth="yes"/>
      <point x="489" y="136"/>
      <point x="618" y="232"/>
      <point x="656" y="308" type="qcurve"/>
      <point x="656" y="1052" type="line"/>
      <point x="842" y="1052" type="line"/>
      <point x="842" y="371" type="line" smooth="yes"/>
      <point x="842" y="245"/>
      <point x="950" y="136"/>
      <point x="1049" y="136" type="qcurve" smooth="yes"/>
      <point x="1135" y="136"/>
      <point x="1264" y="232"/>
      <point x="1302" y="308" type="qcurve"/>
      <point x="1302" y="1052" type="line"/>
      <point x="1488" y="1052" type="line"/>
      <point x="1488" y="145" type="line"/>
      <point x="1643" y="145" type="line"/>
      <point x="1643" y="-270" type="line"/>
    </contour>
  </outline>
</glyph>
<glyph name="tse.bgr" format="2">
  <advance width="1027"/>
  <outline>
    <contour>
      <point x="10" y="373" type="qcurve" smooth="yes"/>
      <point x="10" y="1052" type="line"/>
      <point x="196" y="1052" type="line"/>
      <point x="196" y="371" type="line" smooth="yes"/>
      <point x="196" y="245"/>
      <point x="309" y="136"/>
      <point x="413" y="136" type="qcurve" smooth="yes"/>
      <point x="502" y="136"/>
      <point x="638" y="232"/>
      <point x="676" y="308" type="qcurve"/>
      <point x="676" y="1052" type="line"/>
      <point x="862" y="1052" type="line"/>
      <point x="862" y="145" type="line"/>
      <point x="1017" y="145" type="line"/>
      <point x="1017" y="-270" type="line"/>
      <point x="849" y="-270" type="line"/>
      <point x="849" y="0" type="line"/>
      <point x="694" y="0" type="line"/>
      <point x="686" y="135" type="line"/>
      <point x="680" y="135" type="line"/>
      <point x="623" y="63"/>
      <point x="458" y="-20"/>
      <point x="358" y="-20" type="qcurve" smooth="yes"/>
      <point x="199" y="-20"/>
      <point x="10" y="161"/>
    </contour>
  </outline>
</glyph>
<glyph name="ze.bgr" format="2">
  <advance width="917"/>
  <outline>
    <contour>
      <point x="10" y="-20" type="qcurve" smooth="yes"/>
      <point x="10" y="-10" type="line"/>
      <point x="190" y="-10" type="line"/>
      <point x="190" y="-20" type="line" smooth="yes"/>
      <point x="190" y="-141.9047619048"/>
      <point x="336" y="-276"/>
      <point x="456" y="-276" type="qcurve" smooth="yes"/>
      <point x="577" y="-276"/>
      <point x="721" y="-142.0588235294"/>
      <point x="721" y="0" type="qcurve" smooth="yes"/>
      <point x="721" y="139"/>
      <point x="574.5778546713" y="282"/>
      <point x="437" y="282" type="qcurve" smooth="yes"/>
      <point x="329" y="282" type="line"/>
      <point x="329" y="436" type="line"/>
      <point x="428" y="436" type="line" smooth="yes"/>
      <point x="540.6814516129" y="436"/>
      <point x="671" y="573"/>
      <point x="671" y="690" type="qcurve" smooth="yes"/>
      <point x="671" y="822"/>
      <point x="555" y="932"/>
      <point x="456" y="932" type="qcurve" smooth="yes"/>
      <point x="352" y="932"/>
      <point x="230" y="815"/>
      <point x="230" y="700" type="qcurve" smooth="yes"/>
      <point x="230" y="690" type="line"/>
      <point x="50" y="690" type="line"/>
      <point x="50" y="700" type="line" smooth="yes"/>
      <point x="50" y="863"/>
      <point x="274.6796116505" y="1086"/>
      <point x="456" y="1086" type="qcurve" smooth="yes"/>
      <point x="630.8094059406" y="1086"/>
      <point x="855" y="880"/>
      <point x="855" y="700" type="qcurve" smooth="yes"/>
      <point x="855" y="600"/>
      <point x="750" y="415"/>
      <point x="637" y="366" type="qcurve"/>
      <point x="637" y="362" type="line"/>
      <point x="756" y="336"/>
      <point x="907" y="159"/>
      <point x="907" y="1" type="qcurve" smooth="yes"/>
      <point x="907" y="-200"/>
      <point x="651.8289473684" y="-430"/>
      <point x="456" y="-430" type="qcurve" smooth="yes"/>
      <point x="248.78761061950001" y="-430"/>
      <point x="10" y="-200"/>
    </contour>
  </outline>
</glyph>
